<?xml version="1.0" encoding="UTF-8"?>
<svg width="338px" height="546px" viewBox="0 0 338 546" version="1.1" xmlns="http://www.w3.org/2000/svg" xmlns:xlink="http://www.w3.org/1999/xlink">
    <!-- Generator: Sketch 44.1 (41455) - http://www.bohemiancoding.com/sketch -->
    <title>back icons</title>
    <desc>Created with Sketch.</desc>
    <defs></defs>
    <g id="Page-1" stroke="none" stroke-width="1" fill="none" fill-rule="evenodd">
        <g id="cloudcoin-iphone-app" transform="translate(-8.000000, -94.000000)" fill-rule="nonzero" fill="#63AAFF">
            <g id="back-icons" transform="translate(0.000000, 92.000000)">
                <path d="M86.1892359,381.15281 L86.1892359,395.321484 L89.5627299,395.321484 L89.5627299,396.670882 L47.7314046,396.670882 L47.7314046,395.321484 L51.1048985,395.321484 L51.1048985,366.039557 L47.6942961,366.039557 L55.8277901,360.075219 L63.9612841,366.039557 L60.5506817,366.039557 L60.5506817,368.30587 L62.5747781,366.821533 L65.948272,369.295653 L65.948272,363.610641 L61.8629708,363.610641 L74.0446576,354.677629 L86.2263443,363.610641 L82.1410431,363.610641 L82.1410431,375.683026 L89.5998383,381.15281 L86.1892359,381.15281 Z M74.0446576,356.350882 L65.9853805,362.261243 L67.2976696,362.261243 L67.2976696,383.176906 L76.7434528,383.176906 L76.7434528,381.15281 L73.3328503,381.15281 L80.7916455,375.683026 L80.7916455,362.261243 L82.1039347,362.261243 L74.0446576,356.350882 Z M67.2976696,385.875701 L65.948272,385.875701 L65.948272,384.526304 L64.5988744,384.526304 L64.5988744,387.225099 L65.2735732,387.225099 L76.7434528,387.225099 L76.7434528,384.526304 L75.3940552,384.526304 L75.3940552,385.875701 L74.0446576,385.875701 L74.0446576,384.526304 L72.69526,384.526304 L72.69526,385.875701 L71.3458624,385.875701 L71.3458624,384.526304 L69.9964648,384.526304 L69.9964648,385.875701 L68.6470672,385.875701 L68.6470672,384.526304 L67.2976696,384.526304 L67.2976696,385.875701 Z M62.5747781,368.49546 L58.5636937,371.437147 L59.2012841,371.437147 L59.2012841,391.273292 L64.5988744,391.273292 L64.5988744,388.574496 L63.2494769,388.574496 L63.2494769,383.176906 L65.948272,383.176906 L65.948272,370.969581 L62.5747781,368.49546 Z M53.8036937,395.321484 L53.8036937,391.273292 L57.8518865,391.273292 L57.8518865,372.786545 L54.4412841,372.786545 L59.2012841,369.295653 L59.2012841,364.690159 L59.8388744,364.690159 L55.8277901,361.748472 L51.8167058,364.690159 L52.4542961,364.690159 L52.4542961,395.321484 L53.8036937,395.321484 Z M67.2976696,395.321484 L67.2976696,392.622689 L65.948272,392.622689 L65.948272,393.972087 L64.5988744,393.972087 L64.5988744,392.622689 L63.2494769,392.622689 L63.2494769,393.972087 L61.9000793,393.972087 L61.9000793,392.622689 L60.5506817,392.622689 L60.5506817,393.972087 L59.2012841,393.972087 L59.2012841,392.622689 L57.8518865,392.622689 L57.8518865,393.972087 L56.5024889,393.972087 L56.5024889,392.622689 L55.1530913,392.622689 L55.1530913,395.321484 L67.2976696,395.321484 Z M67.2976696,391.273292 L67.9723684,391.273292 L78.0928503,391.273292 L78.0928503,388.574496 L76.7434528,388.574496 L76.7434528,389.923894 L75.3940552,389.923894 L75.3940552,388.574496 L74.0446576,388.574496 L74.0446576,389.923894 L72.69526,389.923894 L72.69526,388.574496 L71.3458624,388.574496 L71.3458624,389.923894 L69.9964648,389.923894 L69.9964648,388.574496 L68.6470672,388.574496 L68.6470672,389.923894 L67.2976696,389.923894 L67.2976696,388.574496 L65.948272,388.574496 L65.948272,391.273292 L67.2976696,391.273292 Z M80.7916455,395.321484 L80.7916455,392.622689 L79.4422479,392.622689 L79.4422479,393.972087 L78.0928503,393.972087 L78.0928503,392.622689 L76.7434528,392.622689 L76.7434528,393.972087 L75.3940552,393.972087 L75.3940552,392.622689 L74.0446576,392.622689 L74.0446576,393.972087 L72.69526,393.972087 L72.69526,392.622689 L71.3458624,392.622689 L71.3458624,393.972087 L69.9964648,393.972087 L69.9964648,392.622689 L68.6470672,392.622689 L68.6470672,395.321484 L80.7916455,395.321484 Z M84.8398383,379.803412 L85.4774287,379.803412 L81.4663443,376.861725 L77.45526,379.803412 L78.0928503,379.803412 L78.0928503,383.176906 L78.0928503,383.851605 L78.0928503,387.225099 L79.4422479,387.225099 L79.4422479,391.273292 L82.1410431,391.273292 L82.1410431,395.321484 L84.8398383,395.321484 L84.8398383,379.803412 Z M53.8036937,374.405822 L55.1530913,374.405822 L55.1530913,383.176906 L53.8036937,383.176906 L53.8036937,374.405822 Z M53.8036937,384.526304 L55.1530913,384.526304 L55.1530913,385.875701 L53.8036937,385.875701 L53.8036937,384.526304 Z M60.5506817,371.707026 L61.9000793,371.707026 L61.9000793,379.128713 L60.5506817,379.128713 L60.5506817,371.707026 Z M60.5506817,380.478111 L61.9000793,380.478111 L61.9000793,381.827508 L60.5506817,381.827508 L60.5506817,380.478111 Z M68.6470672,363.610641 L69.9964648,363.610641 L69.9964648,371.032328 L68.6470672,371.032328 L68.6470672,363.610641 Z M68.6470672,372.381725 L69.9964648,372.381725 L69.9964648,373.731123 L68.6470672,373.731123 L68.6470672,372.381725 Z M79.4422479,379.803412 L80.7916455,379.803412 L80.7916455,383.176906 L79.4422479,383.176906 L79.4422479,379.803412 Z M79.4422479,384.526304 L80.7916455,384.526304 L80.7916455,385.875701 L79.4422479,385.875701 L79.4422479,384.526304 Z" id="Combined-Shape" opacity="0.400000006" transform="translate(68.647067, 375.674255) rotate(-19.000000) translate(-68.647067, -375.674255) "></path>
                <path d="M336.44673,196.216837 L329.632696,196.216837 L324.16513,193.119682 C323.947263,192.996561 323.678096,192.998475 323.460863,193.125423 C323.244896,193.251733 323.11063,193.48713 323.11063,193.739751 L323.11063,194.303044 L318.043963,194.303044 L318.043963,196.216837 L300.907863,196.216837 C300.229563,196.216837 299.677296,196.773113 299.677296,197.456337 L299.677296,225.597389 C299.677296,226.280613 300.229563,226.836889 300.907863,226.836889 L300.943963,226.836889 L300.943963,229.388613 L307.277296,229.388613 L307.277296,226.836889 L318.043963,226.836889 L318.043963,228.750682 L323.11063,228.750682 L323.11063,229.20744 C323.11063,229.460061 323.244896,229.695458 323.461496,229.823044 C323.571063,229.888113 323.694563,229.920009 323.818063,229.920009 C323.937763,229.920009 324.058096,229.889389 324.16513,229.828785 L329.446496,226.836889 L330.077296,226.836889 L330.077296,229.388613 L336.41063,229.388613 L336.41063,226.836889 L336.44673,226.836889 C337.12503,226.836889 337.677296,226.280613 337.677296,225.597389 L337.677296,197.456337 C337.677296,196.773113 337.12503,196.216837 336.44673,196.216837 Z M306.01063,228.113389 L302.21063,228.113389 L302.21063,226.837526 L306.01063,226.837526 L306.01063,228.113389 Z M307.277296,225.58463 L307.277296,225.561664 L300.943963,225.561664 L300.943963,225.598026 L300.907863,197.492699 L318.043963,197.492699 L318.043963,198.768561 L303.69643,198.768561 C302.87753,198.768561 302.21063,199.439664 302.21063,200.264509 L302.21063,206.423095 L302.21063,215.992061 L302.21063,222.788578 C302.21063,223.613423 302.87753,224.285164 303.69643,224.285164 L304.743963,224.285164 L308.543963,224.285164 L312.343963,224.285164 L316.143963,224.285164 L318.043963,224.285164 L318.043963,225.562302 L307.277296,225.58463 Z M318.043963,206.423733 L316.143963,206.423733 L316.143963,200.682354 L312.343963,200.682354 L308.543963,200.682354 L304.743963,200.682354 L304.743963,206.423733 L303.477296,206.423733 L303.477296,200.265147 C303.477296,200.14394 303.575463,200.044423 303.69643,200.044423 L318.043963,200.044423 L318.043963,206.423733 Z M306.01063,220.458216 L308.543963,220.458216 L308.543963,221.096147 L306.01063,221.096147 L306.01063,220.458216 Z M308.543963,219.182354 L306.01063,219.182354 L306.01063,218.544423 L308.543963,218.544423 L308.543963,219.182354 Z M306.01063,222.372009 L308.543963,222.372009 L308.543963,223.00994 L306.01063,223.00994 L306.01063,222.372009 Z M309.81063,218.544423 L311.077296,218.544423 L311.077296,223.00994 L309.81063,223.00994 L309.81063,218.544423 Z M312.343963,220.458216 L314.877296,220.458216 L314.877296,221.096147 L312.343963,221.096147 L312.343963,220.458216 Z M314.877296,219.182354 L312.343963,219.182354 L312.343963,218.544423 L314.877296,218.544423 L314.877296,219.182354 Z M312.343963,222.372009 L314.877296,222.372009 L314.877296,223.00994 L312.343963,223.00994 L312.343963,222.372009 Z M316.143963,217.268561 L312.343963,217.268561 L308.543963,217.268561 L304.743963,217.268561 L304.743963,223.00994 L303.69643,223.00994 C303.575463,223.00994 303.477296,222.910423 303.477296,222.789216 L303.477296,215.992699 L304.743963,215.992699 L308.543963,215.992699 L312.343963,215.992699 L316.143963,215.992699 L318.043963,215.992699 L318.043963,223.00994 L316.143963,223.00994 L316.143963,217.268561 Z M314.877296,212.803044 L312.343963,212.803044 L312.343963,212.165113 L314.877296,212.165113 L314.877296,212.803044 Z M312.343963,214.078906 L314.877296,214.078906 L314.877296,214.716837 L312.343963,214.716837 L312.343963,214.078906 Z M314.877296,210.889251 L312.343963,210.889251 L312.343963,210.25132 L314.877296,210.25132 L314.877296,210.889251 Z M311.077296,214.716837 L309.81063,214.716837 L309.81063,210.25132 L311.077296,210.25132 L311.077296,214.716837 Z M306.01063,212.165113 L308.543963,212.165113 L308.543963,212.803044 L306.01063,212.803044 L306.01063,212.165113 Z M308.543963,210.889251 L306.01063,210.889251 L306.01063,210.25132 L308.543963,210.25132 L308.543963,210.889251 Z M306.01063,214.078906 L308.543963,214.078906 L308.543963,214.716837 L306.01063,214.716837 L306.01063,214.078906 Z M318.043963,214.716837 L316.143963,214.716837 L316.143963,208.975458 L312.343963,208.975458 L308.543963,208.975458 L304.743963,208.975458 L304.743963,214.716837 L303.477296,214.716837 L303.477296,207.699595 L304.743963,207.699595 L308.543963,207.699595 L312.343963,207.699595 L316.143963,207.699595 L318.043963,207.699595 L318.043963,214.716837 Z M314.877296,204.50994 L312.343963,204.50994 L312.343963,203.872009 L314.877296,203.872009 L314.877296,204.50994 Z M312.343963,205.785802 L314.877296,205.785802 L314.877296,206.423733 L312.343963,206.423733 L312.343963,205.785802 Z M314.877296,202.596147 L312.343963,202.596147 L312.343963,201.958216 L314.877296,201.958216 L314.877296,202.596147 Z M311.077296,206.423733 L309.81063,206.423733 L309.81063,201.958216 L311.077296,201.958216 L311.077296,206.423733 Z M306.01063,203.872009 L308.543963,203.872009 L308.543963,204.50994 L306.01063,204.50994 L306.01063,203.872009 Z M308.543963,202.596147 L306.01063,202.596147 L306.01063,201.958216 L308.543963,201.958216 L308.543963,202.596147 Z M306.01063,205.785802 L308.543963,205.785802 L308.543963,206.423733 L306.01063,206.423733 L306.01063,205.785802 Z M319.31063,227.475458 L319.31063,226.837526 L319.31063,224.285802 L319.31063,215.992699 L319.31063,206.423733 L319.31063,198.768561 L319.31063,196.216837 L319.31063,195.578906 L323.11063,195.578906 L323.11063,227.475458 L319.31063,227.475458 Z M324.377296,194.703026 L327.04933,196.216837 L326.95623,196.216837 L333.243963,199.779682 L333.243963,201.958216 C332.89373,201.958216 332.61063,202.243371 332.61063,202.596147 C332.61063,202.948923 332.89373,203.234078 333.243963,203.234078 L333.243963,203.872009 C332.89373,203.872009 332.61063,204.157164 332.61063,204.50994 C332.61063,204.862716 332.89373,205.147871 333.243963,205.147871 L333.243963,217.906492 C332.89373,217.906492 332.61063,218.191647 332.61063,218.544423 C332.61063,218.897199 332.89373,219.182354 333.243963,219.182354 L333.243963,219.820285 C332.89373,219.820285 332.61063,220.10544 332.61063,220.458216 C332.61063,220.810992 332.89373,221.096147 333.243963,221.096147 L333.243963,223.221733 L324.377296,228.24544 L324.377296,194.703026 Z M335.143963,228.113389 L331.343963,228.113389 L331.343963,226.837526 L335.143963,226.837526 L335.143963,228.113389 Z M336.41063,225.561664 L331.791096,225.561664 L334.51063,224.021061 L334.51063,223.968113 L334.51063,221.096147 L335.143963,221.096147 C335.494196,221.096147 335.777296,220.810992 335.777296,220.458216 C335.777296,220.10544 335.494196,219.820285 335.143963,219.820285 L334.51063,219.820285 L334.51063,219.182354 L335.143963,219.182354 C335.494196,219.182354 335.777296,218.897199 335.777296,218.544423 C335.777296,218.191647 335.494196,217.906492 335.143963,217.906492 L334.51063,217.906492 L334.51063,205.147871 L335.143963,205.147871 C335.494196,205.147871 335.777296,204.862716 335.777296,204.50994 C335.777296,204.157164 335.494196,203.872009 335.143963,203.872009 L334.51063,203.872009 L334.51063,203.234078 L335.143963,203.234078 C335.494196,203.234078 335.777296,202.948923 335.777296,202.596147 C335.777296,202.243371 335.494196,201.958216 335.143963,201.958216 L334.51063,201.958216 L334.51063,199.033302 L334.51063,198.980354 L331.86203,197.47994 L336.41063,197.456337 L336.44673,225.561664 L336.41063,225.561664 Z M321.21063,197.439113 C320.860849,197.439113 320.577296,197.153501 320.577296,196.801182 C320.577296,196.448862 320.860849,196.163251 321.21063,196.163251 C321.56041,196.163251 321.843963,196.448862 321.843963,196.801182 C321.843963,197.153501 321.56041,197.439113 321.21063,197.439113 Z M321.21063,201.266699 C320.860849,201.266699 320.577296,200.981087 320.577296,200.628768 C320.577296,200.276448 320.860849,199.990837 321.21063,199.990837 C321.56041,199.990837 321.843963,200.276448 321.843963,200.628768 C321.843963,200.981087 321.56041,201.266699 321.21063,201.266699 Z M321.21063,222.956354 C320.860849,222.956354 320.577296,222.670743 320.577296,222.318423 C320.577296,221.966103 320.860849,221.680492 321.21063,221.680492 C321.56041,221.680492 321.843963,221.966103 321.843963,222.318423 C321.843963,222.670743 321.56041,222.956354 321.21063,222.956354 Z M321.21063,219.128768 C320.860849,219.128768 320.577296,218.843156 320.577296,218.490837 C320.577296,218.138517 320.860849,217.852906 321.21063,217.852906 C321.56041,217.852906 321.843963,218.138517 321.843963,218.490837 C321.843963,218.843156 321.56041,219.128768 321.21063,219.128768 Z M321.21063,205.094285 C320.860849,205.094285 320.577296,204.808674 320.577296,204.456354 C320.577296,204.104034 320.860849,203.818423 321.21063,203.818423 C321.56041,203.818423 321.843963,204.104034 321.843963,204.456354 C321.843963,204.808674 321.56041,205.094285 321.21063,205.094285 Z M321.21063,226.78394 C320.860849,226.78394 320.577296,226.498329 320.577296,226.146009 C320.577296,225.79369 320.860849,225.508078 321.21063,225.508078 C321.56041,225.508078 321.843963,225.79369 321.843963,226.146009 C321.843963,226.498329 321.56041,226.78394 321.21063,226.78394 Z M325.643963,214.663889 C326.345696,214.663889 326.917596,214.087837 326.917596,213.381647 L326.917596,209.567458 C326.917596,208.859992 326.345696,208.284578 325.643963,208.284578 C325.29373,208.284578 325.01063,207.999423 325.01063,207.646647 C325.01063,207.293871 325.29373,207.008716 325.643963,207.008716 C327.044896,207.008716 328.184263,208.155716 328.184263,209.56682 L328.184263,213.381009 C328.184263,214.792113 327.044896,215.939751 325.643963,215.939751 C325.29373,215.939751 325.01063,215.654595 325.01063,215.30182 C325.01063,214.949044 325.29373,214.663889 325.643963,214.663889 Z M325.643963,204.456992 C328.441396,204.456992 330.717596,206.749078 330.717596,209.56682 L330.717596,213.381009 C330.717596,216.198751 328.441396,218.491475 325.643963,218.491475 C325.29373,218.491475 325.01063,218.20632 325.01063,217.853544 C325.01063,217.500768 325.29373,217.215613 325.643963,217.215613 C327.74283,217.215613 329.45093,215.495113 329.45093,213.381647 L329.45093,209.567458 C329.45093,207.452716 327.74283,205.732854 325.643963,205.732854 C325.29373,205.732854 325.01063,205.447699 325.01063,205.094923 C325.01063,204.742147 325.29373,204.456992 325.643963,204.456992 Z" id="Combined-Shape" transform="translate(318.677296, 211.474382) rotate(-330.000000) translate(-318.677296, -211.474382) "></path>
                <path d="M343.233917,10.829066 C343.263495,10.6971076 343.279425,10.5619922 343.279425,10.4236228 L343.279425,7.24914023 C343.279425,4.4999651 337.282333,3.01651302 331.639688,3.01651302 C325.997043,3.01651302 320,4.4999651 320,7.24914023 C320,7.36774258 320.011899,7.48377083 320.033706,7.59761354 C320.013065,7.65419492 320,7.71451602 320,7.77823685 L320,10.4236228 C320,11.3030868 320.614479,12.052778 321.634012,12.666091 C321.603511,12.7993608 321.587241,12.9339419 321.587241,13.0689602 C321.587241,13.1875625 321.59914,13.3035908 321.620947,13.417482 C321.600257,13.4740634 321.587241,13.5343845 321.587241,13.5981053 L321.587241,16.2434913 C321.587241,16.4863784 321.634983,16.7191634 321.724202,16.9421378 C320.747894,17.6656023 320.529097,18.3897954 320.529097,18.8888772 C320.529097,19.0074796 320.540996,19.1235078 320.562803,19.2373505 C320.542113,19.2939319 320.529097,19.3542044 320.529097,19.4179738 L320.529097,22.0633598 C320.529097,24.8125349 326.526189,26.295987 332.168834,26.295987 C337.811479,26.295987 343.808571,24.8125349 343.808571,22.0633598 L343.808571,18.8888772 C343.808571,18.6540038 343.761606,18.4220444 343.670541,18.1955732 C344.425283,17.6407357 344.866667,16.9887142 344.866667,16.2434913 L344.866667,13.0690087 L344.866667,13.0689602 C344.866667,12.4863419 344.574629,11.6399525 343.233917,10.829066 Z M323.950643,5.1322681 C325.996558,4.45032891 328.727326,4.07470625 331.639688,4.07470625 C334.552051,4.07470625 337.282722,4.45032891 339.328734,5.1322681 C341.139969,5.73601328 342.221232,6.52737552 342.221232,7.24914023 C342.221232,7.97090495 341.139969,8.76226719 339.328734,9.36601237 C337.282673,10.0479516 334.552051,10.4235742 331.639688,10.4235742 C328.727326,10.4235742 325.996509,10.0479516 323.950643,9.36601237 C322.139408,8.76226719 321.058145,7.97090495 321.058145,7.24914023 C321.058145,6.52737552 322.139456,5.73601328 323.950643,5.1322681 Z M342.221281,9.09602448 L342.221281,10.4236228 C342.221281,11.0350417 341.443129,11.695951 340.104991,12.2508857 L340.104991,10.2126447 C340.957792,9.89705169 341.681305,9.5241974 342.221281,9.09602448 Z M339.046798,10.5570383 L339.046798,12.6299566 C338.399002,12.8311241 337.688845,13.0029081 336.930509,13.1435116 L336.930509,11.0376158 C337.67612,10.9060458 338.38754,10.7456267 339.046798,10.5570383 Z M335.872364,11.2023574 L335.872364,13.3156841 C335.19363,13.4107797 334.485513,13.4828542 333.756075,13.5302077 L333.756075,11.4128984 C334.472983,11.3662249 335.182703,11.2958503 335.872364,11.2023574 Z M332.697882,11.4645259 L332.697882,13.5812038 C332.348437,13.5922772 331.995495,13.5980568 331.639737,13.5980568 C331.283979,13.5980568 330.930988,13.5922772 330.581592,13.5812038 L330.581592,11.4644773 C330.93468,11.4759393 331.287864,11.4817189 331.639737,11.4817189 C331.991561,11.4817674 332.344794,11.4759879 332.697882,11.4645259 Z M329.523399,11.4128984 L329.523399,13.5302562 C328.793961,13.4828542 328.085795,13.4108283 327.407061,13.3157327 L327.407061,11.202406 C328.096723,11.2958503 328.806443,11.3662249 329.523399,11.4128984 Z M326.348917,11.0376643 L326.348917,13.1435602 C325.59058,13.0029081 324.880375,12.8311727 324.232627,12.6300052 L324.232627,10.5570383 C324.891885,10.7456267 325.603354,10.9060944 326.348917,11.0376643 Z M321.058145,10.4236228 L321.058145,9.09602448 C321.59812,9.5241974 322.321634,9.89705169 323.174434,10.2126447 L323.174434,12.2508857 C321.836296,11.695951 321.058145,11.0350417 321.058145,10.4236228 Z M322.645386,14.9157958 C323.185362,15.3439688 323.908875,15.716823 324.761675,16.032416 L324.761675,18.0707056 C323.423538,17.515771 322.645386,16.8548616 322.645386,16.2434427 L322.645386,14.9157958 Z M323.703531,23.8906227 C322.365393,23.335688 321.587241,22.6747786 321.587241,22.0633598 L321.587241,20.7357615 C322.127217,21.1639344 322.85073,21.5367887 323.703531,21.8523816 L323.703531,23.8906227 Z M326.878013,24.7832971 C326.119677,24.6426451 325.409471,24.4709096 324.761724,24.2697422 L324.761724,22.1967753 C325.420982,22.3853151 326.13245,22.5457828 326.878013,22.6774013 L326.878013,24.7832971 Z M330.052496,25.1699447 C329.323057,25.1225426 328.614892,25.0504681 327.936158,24.9554211 L327.936158,22.8420944 C328.625819,22.9355387 329.335539,23.0059133 330.052496,23.0526354 L330.052496,25.1699447 L330.052496,25.1699447 Z M333.22693,25.2209408 C332.877485,25.2320142 332.524543,25.2377937 332.168785,25.2377937 C331.813027,25.2377937 331.460036,25.2320142 331.11064,25.2209408 L331.11064,23.1042629 C331.463728,23.1157249 331.816912,23.1215044 332.168785,23.1215044 C332.520658,23.1215044 332.873842,23.1157249 333.22693,23.1042629 L333.22693,25.2209408 Z M336.401412,24.9554211 C335.722679,25.0505167 335.014561,25.1225911 334.285123,25.1699447 L334.285123,23.0526354 C335.002079,23.0059618 335.711799,22.9355872 336.401412,22.842143 L336.401412,24.9554211 Z M339.575895,24.2696936 C338.928099,24.4708611 338.217942,24.6426451 337.459605,24.7832486 L337.459605,22.6773527 C338.205217,22.5457828 338.916685,22.3853151 339.575895,22.1967753 L339.575895,24.2696936 Z M342.750377,22.0633598 C342.750377,22.6747786 341.972226,23.335688 340.634088,23.8906227 L340.634088,21.8523816 C341.486937,21.5367401 342.21045,21.1639344 342.750377,20.7357615 L342.750377,22.0633598 Z M339.857879,21.0057493 C337.811818,21.6876885 335.081196,22.0633112 332.168834,22.0633112 C329.256471,22.0633112 326.525654,21.6876885 324.479788,21.0057493 C322.668553,20.4020042 321.58729,19.6106419 321.58729,18.8888772 C321.58729,18.4747404 321.945865,18.0960579 322.327316,17.810237 C324.099309,19.5516322 328.773174,20.4761185 333.227027,20.4761185 C336.788691,20.4761185 340.490959,19.8848552 342.737701,18.7575016 C342.745521,18.8014068 342.750426,18.8451663 342.750426,18.8888772 C342.750377,19.6106905 341.669066,20.4020042 339.857879,21.0057493 Z M325.819868,18.4498737 L325.819868,16.3768582 C326.479127,16.565398 327.190595,16.7258658 327.936158,16.8574357 L327.936158,18.9634286 C327.177822,18.8228251 326.467616,18.6510411 325.819868,18.4498737 Z M328.994351,19.1356012 L328.994351,17.0221773 C329.684012,17.1156216 330.393732,17.1859962 331.11064,17.2327184 L331.11064,19.3501247 C330.381202,19.3027227 329.673036,19.2306482 328.994351,19.1356012 Z M332.168785,19.4010723 L332.168785,17.2842973 C332.521872,17.2957592 332.875057,17.3015388 333.22693,17.3015388 C333.578803,17.3015388 333.931987,17.2957592 334.285074,17.2842973 L334.285074,19.4010723 C333.93563,19.4121457 333.582688,19.4179253 333.22693,19.4179253 C332.871171,19.4179253 332.51823,19.4121457 332.168785,19.4010723 Z M335.343268,19.3500762 L335.343268,17.2326698 C336.060224,17.1859962 336.769944,17.1156216 337.459557,17.0221288 L337.459557,19.1355526 C336.780872,19.2306482 336.072706,19.3027227 335.343268,19.3500762 Z M338.51775,18.9634286 L338.51775,16.8574357 C339.263362,16.7258658 339.97483,16.565398 340.634039,16.3768582 L340.634039,18.4498737 C339.986243,18.6510411 339.276086,18.8228251 338.51775,18.9634286 Z M343.808522,16.2434913 C343.808522,16.8549102 343.03037,17.5158195 341.692233,18.0707542 L341.692233,16.0324646 C342.545082,15.716823 343.268595,15.3440173 343.808522,14.9158444 L343.808522,16.2434913 Z M340.916024,15.1858323 C338.870109,15.8678201 336.139341,16.2433941 333.226978,16.2433941 C330.314616,16.2433941 327.583799,15.8678201 325.537933,15.1858323 C323.819996,14.613219 322.760589,13.8718329 322.655828,13.181103 C324.927777,14.1499316 328.343884,14.65625 331.639737,14.65625 C336.277953,14.65625 341.154782,13.6537154 342.744306,11.7699682 C343.433142,12.1978012 343.808522,12.6527835 343.808522,13.0689602 C343.808522,13.7907249 342.727211,14.5820871 340.916024,15.1858323 Z" id="Shape" opacity="0.400000006" transform="translate(332.433333, 14.656250) rotate(-12.000000) translate(-332.433333, -14.656250) "></path>
                <path d="M70.4733786,164.94825 C70.4733786,162.699205 68.6619032,160.877549 66.4254278,160.877549 C64.1889524,160.877549 62.3774769,162.699205 62.3774769,164.94825 C62.3774769,167.197294 64.1889524,169.01895 66.4254278,169.01895 C68.6619032,169.01895 70.4733786,167.197294 70.4733786,164.94825 Z M66.2024769,167.729778 C66.0910015,167.729778 66.0352638,167.666721 66.0352638,167.554619 L66.0352638,167.288377 C66.0352638,167.092199 66.0282966,167.085192 65.8401819,167.057167 C65.6032966,167.022135 65.3733786,166.966084 65.1504278,166.860988 C64.9832147,166.776912 64.962313,166.734874 65.0110835,166.552708 C65.0459196,166.419587 65.0807556,166.286466 65.1225589,166.153345 C65.1713294,165.999205 65.2131327,165.978186 65.3524769,166.055256 C65.5893622,166.181371 65.8471491,166.251434 66.1119032,166.286466 C66.2860835,166.307485 66.4532966,166.293472 66.6135425,166.223409 C66.9131327,166.090288 66.954936,165.746976 66.7041163,165.536785 C66.6205097,165.466721 66.5229688,165.41067 66.4184606,165.368632 C66.1606737,165.25653 65.8819851,165.165447 65.6381327,165.018313 C65.2410015,164.780097 64.9832147,164.443791 65.0110835,163.960351 C65.0459196,163.406848 65.3524769,163.063536 65.8610835,162.874364 C66.0700999,162.797294 66.0700999,162.8043 66.0700999,162.580097 L66.0700999,162.355893 C66.0770671,162.18774 66.104936,162.159715 66.2651819,162.159715 L66.4184606,162.159715 C66.7668212,162.159715 66.7668212,162.159715 66.7668212,162.510033 C66.7668212,162.755256 66.7668212,162.755256 67.0106737,162.797294 C67.1987884,162.82532 67.379936,162.881371 67.5541163,162.958441 C67.6516573,163.000479 67.6864933,163.070543 67.6586245,163.168632 C67.6168212,163.322772 67.5750179,163.469906 67.5262474,163.624046 C67.4774769,163.764173 67.4356737,163.785192 67.3032966,163.722135 C67.0315753,163.589014 66.7459196,163.532963 66.4463294,163.553982 C66.3696901,163.560988 66.2930507,163.567995 66.2164114,163.603027 C65.9586245,163.715129 65.9168212,164.00239 66.1328048,164.184555 C66.2442802,164.275638 66.3696901,164.338695 66.5020671,164.394746 C66.7319851,164.492836 66.9619032,164.583918 67.1778868,164.703027 C67.8746081,165.088377 68.0627228,165.964173 67.5680507,166.566721 C67.3938704,166.783918 67.1639524,166.931052 66.892231,167.001116 C66.7737884,167.036148 66.7250179,167.092199 66.7250179,167.218313 C66.7319851,167.337422 66.7250179,167.45653 66.7250179,167.575638 C66.7250179,167.680734 66.6692802,167.743791 66.564772,167.743791 C66.4602638,167.736785 66.3278868,167.736785 66.2024769,167.729778 Z M60.5381327,166.27946 C59.9186231,166.27946 59.4164114,165.774426 59.4164114,165.151434 C59.4164114,164.528443 59.9186231,164.023409 60.5381327,164.023409 C61.1576423,164.023409 61.659854,164.528443 61.659854,165.151434 C61.659854,165.774426 61.1576423,166.27946 60.5381327,166.27946 Z M72.3196901,166.27946 C71.7001805,166.27946 71.1979688,165.774426 71.1979688,165.151434 C71.1979688,164.528443 71.7001805,164.023409 72.3196901,164.023409 C72.9391996,164.023409 73.4414114,164.528443 73.4414114,165.151434 C73.4414114,165.774426 72.9391996,166.27946 72.3196901,166.27946 Z M75.3713294,158.306211 C76.3885425,158.306211 77.2176409,159.139969 77.2106737,160.162899 L77.2106737,169.726593 C77.2106737,170.749523 76.3815753,171.583281 75.3643622,171.583281 L63.6385425,171.583281 L63.6385425,170.175001 L63.6385425,170.11895 L63.6385425,169.992836 L73.4832147,169.992836 C73.462313,169.880734 73.4483786,169.768632 73.4483786,169.649523 C73.4483786,168.605574 74.2914114,167.76481 75.3225589,167.76481 C75.4340343,167.76481 75.5455097,167.771816 75.6500179,167.792836 L75.6500179,162.082644 C75.5455097,162.096657 75.4340343,162.11067 75.3225589,162.11067 C74.2844442,162.11067 73.4483786,161.262899 73.4483786,160.225957 C73.4483786,160.113855 73.462313,159.994746 73.4832147,159.882644 L59.7508376,159.882644 C59.7856737,160.029778 59.8065753,160.183918 59.8065753,160.345065 C59.8065753,161.389014 58.9635425,162.229778 57.932395,162.229778 C57.7721491,162.229778 57.6188704,162.208759 57.4725589,162.173727 L57.4725589,166.35653 C57.2217392,166.342517 56.9709196,166.335511 56.7131327,166.335511 C56.4344442,166.335511 56.1627228,166.342517 55.8910015,166.35653 L55.8910015,160.162899 C55.8910015,159.139969 56.7200999,158.306211 57.737313,158.306211 L75.3713294,158.306211 Z M45.0987884,167.37946 C44.8619032,167.288377 44.6528868,167.190288 44.464772,167.113218 L44.464772,167.897931 C44.464772,167.982008 44.6668212,168.311307 45.5377228,168.640606 C46.4155917,168.969906 47.6069851,169.152071 48.8819851,169.152071 C49.2651819,169.152071 49.6344442,169.138058 49.9967392,169.103027 C49.8295261,169.495383 49.7877228,169.859715 49.7877228,170.139969 L49.7877228,170.441243 C49.4881327,170.462262 49.1885425,170.469269 48.8819851,170.469269 C47.4606737,170.469269 46.1160015,170.259078 45.0987884,169.873727 C44.8619032,169.782644 44.6459196,169.691562 44.464772,169.593472 L44.464772,170.378186 C44.464772,170.462262 44.6668212,170.791562 45.5377228,171.120861 C46.4155917,171.45016 47.6069851,171.632326 48.8819851,171.632326 C49.1885425,171.632326 49.4950999,171.618313 49.7877228,171.597294 L49.7877228,172.557167 L49.7877228,172.571179 L49.7877228,172.585192 L49.7877228,172.886466 C49.4881327,172.907485 49.1885425,172.914492 48.8819851,172.914492 C47.4606737,172.914492 46.1160015,172.7043 45.0987884,172.31895 C44.8619032,172.227867 44.6459196,172.136785 44.464772,172.038695 L44.464772,172.830415 C44.464772,172.914492 44.6668212,173.243791 45.5377228,173.57309 C46.4155917,173.90239 47.6069851,174.084555 48.8819851,174.084555 C49.1885425,174.084555 49.4950999,174.070543 49.7877228,174.049523 L49.7877228,175.009396 L49.7877228,175.023409 L49.7877228,175.037422 L49.7877228,175.065447 L49.7877228,175.303664 C49.4881327,175.324683 49.1885425,175.331689 48.8819851,175.331689 C47.4606737,175.331689 46.1160015,175.121498 45.0987884,174.736148 C43.5450999,174.147613 43.2176409,173.362899 43.2176409,172.809396 L43.2176409,170.385192 L43.2176409,170.357167 L43.2176409,167.932963 L43.2176409,167.904937 L43.2176409,167.876912 L43.2176409,165.480734 L43.2176409,165.452708 L43.2176409,165.424683 L43.2176409,163.000479 L43.2176409,162.972453 L43.2176409,160.54825 C43.2176409,159.98774 43.5450999,159.203027 45.0987884,158.621498 C46.1160015,158.236148 47.4606737,158.025957 48.8819851,158.025957 C50.3032966,158.025957 51.6479688,158.236148 52.6651819,158.628504 C54.2188704,159.217039 54.5463294,160.001753 54.5463294,160.555256 L54.5463294,160.597294 L54.5463294,162.97946 L54.5463294,163.007485 L54.5463294,163.049523 L54.5463294,165.431689 L54.5463294,165.459715 L54.5463294,165.501753 L54.5463294,166.517676 C53.7938704,166.629778 53.0901819,166.804937 52.4840343,167.029141 C51.8778868,167.253345 51.4041163,167.519587 51.034854,167.799842 C50.3660015,167.911944 49.6344442,167.975001 48.8819851,167.975001 C47.4606737,167.975001 46.1160015,167.76481 45.0987884,167.37946 Z M45.5377228,159.798568 C44.6668212,160.120861 44.464772,160.464173 44.464772,160.54825 C44.464772,160.632326 44.6668212,160.961625 45.5377228,161.290925 C46.4155917,161.620224 47.6069851,161.80239 48.8819851,161.80239 C50.1500179,161.80239 51.3414114,161.620224 52.2262474,161.290925 C53.0692802,160.975638 53.2782966,160.660351 53.292231,160.555256 L53.292231,160.534237 C53.2782966,160.429141 53.0692802,160.113855 52.2262474,159.798568 C51.3483786,159.469269 50.1569851,159.287103 48.8819851,159.287103 C47.6139524,159.287103 46.4225589,159.469269 45.5377228,159.798568 Z M44.464772,162.180734 L44.4717392,162.180734 L44.4717392,162.965447 C44.4717392,163.049523 44.6737884,163.378823 45.5446901,163.708122 C46.4225589,164.037422 47.6139524,164.219587 48.8889524,164.219587 C50.1569851,164.219587 51.3483786,164.037422 52.2332147,163.708122 C53.0762474,163.392836 53.2852638,163.077549 53.2991983,162.972453 L53.2991983,162.965447 L53.2991983,162.180734 C53.1110835,162.278823 52.9020671,162.369906 52.6651819,162.460988 C51.6479688,162.846339 50.3032966,163.05653 48.8819851,163.05653 C47.4606737,163.05653 46.1160015,162.846339 45.0987884,162.460988 C44.8619032,162.369906 44.6459196,162.278823 44.464772,162.180734 Z M44.464772,164.639969 L44.4717392,164.639969 L44.4717392,165.424683 C44.4717392,165.508759 44.6737884,165.838058 45.5446901,166.167358 C46.4225589,166.496657 47.6139524,166.678823 48.8889524,166.678823 C50.1569851,166.678823 51.3483786,166.496657 52.2332147,166.167358 C53.0762474,165.852071 53.2852638,165.536785 53.2991983,165.431689 L53.2991983,165.424683 L53.2991983,164.639969 C53.1110835,164.738058 52.9020671,164.829141 52.6651819,164.920224 C51.6479688,165.305574 50.3032966,165.515765 48.8819851,165.515765 C47.4606737,165.515765 46.1160015,165.305574 45.0987884,164.920224 C44.8619032,164.829141 44.6459196,164.738058 44.464772,164.639969 Z M60.4893622,168.199205 C62.0500179,168.78774 62.3774769,169.572453 62.3705097,170.125957 L62.3705097,170.167995 L62.3705097,172.55016 L62.3705097,172.578186 L62.3705097,172.620224 L62.3705097,175.00239 L62.3705097,175.030415 L62.3705097,175.072453 L62.3705097,177.454619 L62.3705097,177.482644 C62.3705097,178.043154 62.0430507,178.827867 60.4893622,179.409396 C59.4721491,179.794746 58.1274769,180.004937 56.7061655,180.004937 C55.284854,180.004937 53.9401819,179.794746 52.9229688,179.409396 C51.3692802,178.820861 51.0418212,178.036148 51.0418212,177.482644 L51.0418212,177.454619 L51.0418212,175.058441 L51.0418212,175.030415 L51.0418212,175.00239 L51.0418212,172.578186 L51.0418212,172.55016 L51.0418212,170.125957 C51.0418212,169.565447 51.3692802,168.780734 52.9229688,168.199205 C53.9401819,167.813855 55.284854,167.603664 56.7061655,167.603664 C58.1274769,167.603664 59.4721491,167.813855 60.4893622,168.199205 Z M53.3619032,169.383281 C52.4840343,169.705574 52.2889524,170.048886 52.2889524,170.132963 C52.2889524,170.217039 52.4910015,170.546339 53.3619032,170.875638 C54.239772,171.204937 55.4311655,171.387103 56.7061655,171.387103 C57.9741983,171.387103 59.1655917,171.204937 60.0504278,170.875638 C60.8934606,170.560351 61.1024769,170.245065 61.1164114,170.139969 L61.1164114,170.11895 C61.1094442,170.013855 60.8934606,169.698568 60.0504278,169.383281 C59.1725589,169.053982 57.9811655,168.871816 56.7061655,168.871816 C55.4381327,168.871816 54.2467392,169.053982 53.3619032,169.383281 Z M60.057395,178.211307 C60.9282966,177.882008 61.1233786,177.552708 61.1303458,177.468632 L61.1303458,176.683918 C60.942231,176.782008 60.7332147,176.87309 60.4963294,176.964173 C59.4791163,177.349523 58.1344442,177.559715 56.7131327,177.559715 C55.2918212,177.559715 53.9471491,177.349523 52.929936,176.964173 C52.6930507,176.87309 52.4770671,176.782008 52.2959196,176.683918 L52.2959196,177.468632 C52.2959196,177.552708 52.4979688,177.882008 53.3688704,178.211307 C54.2467392,178.540606 55.4381327,178.722772 56.7131327,178.722772 C57.9811655,178.722772 59.1725589,178.540606 60.057395,178.211307 Z M61.1233786,175.009396 L61.1303458,174.224683 C60.942231,174.322772 60.7332147,174.413855 60.4963294,174.504937 C59.4791163,174.890288 58.1344442,175.100479 56.7131327,175.100479 C55.2918212,175.100479 53.9471491,174.890288 52.929936,174.504937 C52.6930507,174.413855 52.4770671,174.322772 52.2959196,174.224683 L52.2959196,175.009396 C52.2959196,175.093472 52.4979688,175.422772 53.3688704,175.752071 C54.2467392,176.081371 55.4381327,176.263536 56.7131327,176.263536 C57.9811655,176.263536 59.1725589,176.081371 60.057395,175.752071 C60.9004278,175.436785 61.1094442,175.121498 61.1233786,175.016402 L61.1233786,175.009396 Z M61.1233786,172.55016 L61.1303458,171.765447 C60.942231,171.863536 60.7332147,171.954619 60.4963294,172.045702 C59.4791163,172.431052 58.1344442,172.641243 56.7131327,172.641243 C55.2918212,172.641243 53.9471491,172.431052 52.929936,172.045702 C52.6930507,171.954619 52.4770671,171.863536 52.2959196,171.765447 L52.2959196,172.55016 C52.2959196,172.634237 52.4979688,172.963536 53.3688704,173.292836 C54.2467392,173.622135 55.4381327,173.8043 56.7131327,173.8043 C57.9811655,173.8043 59.1725589,173.622135 60.057395,173.292836 C60.9004278,172.977549 61.1094442,172.662262 61.1233786,172.557167 L61.1233786,172.55016 Z" id="Combined-Shape" opacity="0.5" transform="translate(60.214179, 169.015447) rotate(-30.000000) translate(-60.214179, -169.015447) "></path>
                <path d="M60.643561,44.6315438 C68.1589231,44.6315438 74.2728714,51.58463 74.2728714,60.1315438 C74.2728714,68.6784576 68.1589231,75.6315438 60.643561,75.6315438 C60.0978541,75.6315438 59.560699,75.5909231 59.0320955,75.5193025 C58.4805093,75.5930611 57.9561817,75.6315438 57.4366645,75.6315438 C54.5504576,75.6315438 51.872699,74.603199 49.6668886,72.8554404 C49.6332162,72.8319231 49.6000783,72.8094749 49.5728196,72.7790094 C48.6342679,72.0221818 47.7828369,71.1349404 47.0404403,70.1386645 C47.0158541,70.1156818 46.9998196,70.0868197 46.9800438,70.0595611 C46.2483369,69.0638197 45.6235265,67.9633197 45.1275265,66.7799749 C45.1168369,66.75913 45.1093541,66.7382852 45.1018714,66.7158369 C44.2728886,64.7158025 43.8073541,62.4848714 43.8073541,60.1315438 C43.8073541,58.6269749 44.0003024,57.1731818 44.353061,55.7968887 C44.3600093,55.7380956 44.370699,55.6819749 44.3947507,55.6306645 C44.6384748,54.7199059 44.9554231,53.8460266 45.3349059,53.0143714 C45.345061,52.9849749 45.3578886,52.9582507 45.3723196,52.9315266 C45.9239059,51.741768 46.6059059,50.6418025 47.3990783,49.6594231 C47.4193886,49.6321645 47.4380955,49.6054404 47.4632162,49.5824576 C48.3012852,48.5589231 49.2574748,47.66313 50.3098714,46.9260783 C50.3104059,46.9255438 50.3114748,46.9250094 50.3120093,46.9244749 C52.3863369,45.4717507 54.8267852,44.6315438 57.4366645,44.6315438 C57.9561817,44.6315438 58.4805093,44.6700266 59.0320955,44.7437852 C59.560699,44.6721645 60.0978541,44.6315438 60.643561,44.6315438 Z M60.643561,74.5625783 C67.5693886,74.5625783 73.2039059,68.0889231 73.2039059,60.1315438 C73.2039059,52.1741645 67.5693886,45.7005094 60.643561,45.7005094 C60.2191817,45.7005094 59.7996128,45.72563 59.3864576,45.773199 L59.1737334,45.80313 C59.1475438,45.8063369 59.1213541,45.8106128 59.0951645,45.8143542 C58.9091645,45.8405438 58.7247679,45.8715438 58.5419748,45.9068197 C58.5275438,45.9094921 58.5136472,45.912699 58.4997507,45.9153714 C58.3217679,45.9506473 58.1453886,45.9896645 57.9700783,46.0329576 C57.9454921,46.0388369 57.9214403,46.0457852 57.8968541,46.052199 C57.7333024,46.0938887 57.5702852,46.1387852 57.4094059,46.1879576 C57.3623714,46.2023887 57.3164059,46.2189576 57.2693714,46.2339231 C57.1314748,46.2777507 56.9935783,46.3226473 56.8578196,46.3718197 C56.7503886,46.4108369 56.6450955,46.4535956 56.5392679,46.4958197 C56.4644403,46.5257507 56.3885438,46.5535438 56.3142507,46.5845438 C53.4398024,47.8010266 51.0560093,50.191768 49.6059576,53.2490094 C49.5947334,53.2719921 49.5845783,53.2955094 49.5738886,53.3190266 C49.4937162,53.4900611 49.4162162,53.6632335 49.3419231,53.8385438 C49.315199,53.9026818 49.2895438,53.9684231 49.2633541,54.0330956 C49.2077679,54.1693887 49.1532507,54.3056818 49.1014059,54.4441128 C49.0698714,54.5285611 49.0404748,54.6140783 49.0100093,54.6990611 C48.9672507,54.8203887 48.9244921,54.9417163 48.8844059,55.0646473 C48.8528714,55.1608542 48.8229403,55.25813 48.7935438,55.3554059 C48.7582679,55.4703197 48.724061,55.5852335 48.6914576,55.7012163 C48.6625955,55.8043714 48.6348024,55.9080611 48.6075438,56.0122852 C48.5781472,56.1255956 48.5498196,56.2399749 48.522561,56.3543542 C48.4974403,56.4612507 48.4728541,56.5681473 48.4498714,56.6761128 C48.4252852,56.7904921 48.4028369,56.9059404 48.3803886,57.0213887 C48.3595438,57.1298887 48.338699,57.2383887 48.3199921,57.3479576 C48.2996817,57.4676818 48.2815093,57.5879404 48.2638714,57.708199 C48.2478369,57.8150956 48.2318024,57.9219921 48.2179059,58.0294231 C48.2013369,58.1582335 48.1879748,58.2881128 48.1746128,58.4179921 C48.1644576,58.5184749 48.152699,58.6189576 48.1441472,58.7199749 C48.1313196,58.8690956 48.1227679,59.0187507 48.1142162,59.1689404 C48.1094059,59.2528542 48.1024576,59.3362335 48.0987162,59.4206818 C48.0890955,59.6563887 48.0832162,59.8931645 48.0832162,60.1315438 C48.0832162,60.3699231 48.0890955,60.606699 48.0971128,60.8424059 C48.1008541,60.9268542 48.1078024,61.0102335 48.1126128,61.0941473 C48.1211645,61.2443369 48.1297162,61.3945266 48.1425438,61.5431128 C48.1510955,61.64413 48.1623196,61.7446128 48.1730093,61.8450956 C48.1869059,61.9749749 48.1997334,62.1048542 48.2163024,62.2336645 C48.230199,62.3410956 48.2462334,62.4479921 48.2622679,62.5548887 C48.2799059,62.6756818 48.2980783,62.7959404 48.3183886,62.91513 C48.3370955,63.024699 48.3579403,63.133199 48.3787852,63.241699 C48.400699,63.3571473 48.4236817,63.4725956 48.4482679,63.5869749 C48.4712507,63.6944059 48.4958369,63.8018369 48.5209576,63.9087335 C48.5482162,64.0231128 48.5765438,64.1374921 48.6059403,64.2508025 C48.633199,64.3550266 48.6609921,64.4587163 48.6898541,64.5618714 C48.7224576,64.6778542 48.7566645,64.792768 48.7919403,64.9076818 C48.8218714,65.0049576 48.8518024,65.1022335 48.8833369,65.1984404 C48.9234231,65.3213714 48.9661817,65.442699 49.0089403,65.5640266 C49.0388714,65.6490094 49.0688024,65.7345266 49.1003369,65.8189749 C49.1521817,65.9574059 49.206699,66.093699 49.2622852,66.2299921 C49.2884748,66.2946645 49.3135955,66.3604059 49.3408541,66.4245438 C49.4151472,66.5998542 49.4926472,66.7730266 49.5728196,66.9440611 C49.5840438,66.9670438 49.5936645,66.9910956 49.6048886,67.0140783 C51.0549403,70.0707852 53.4387334,72.4620611 56.3131817,73.6785438 C56.3874748,73.7100783 56.4633714,73.7378714 56.538199,73.767268 C56.6440265,73.8094921 56.7498541,73.8522507 56.8567507,73.891268 C56.9925093,73.9404404 57.1304059,73.9853369 57.2683024,74.0291645 C57.3153369,74.04413 57.3613024,74.060699 57.4083369,74.07513 C57.5692162,74.1243025 57.7322334,74.169199 57.8957852,74.2108887 C57.9203714,74.216768 57.9444231,74.2242507 57.9690093,74.23013 C58.1443196,74.2734231 58.320699,74.3124404 58.4986817,74.3477163 C58.5131128,74.3503887 58.5270093,74.3535956 58.5409059,74.356268 C58.7242334,74.3915438 58.90863,74.4225438 59.0940955,74.4487335 C59.1202852,74.4519404 59.1464748,74.4562163 59.1726645,74.4599576 L59.3853886,74.4898887 C59.7996128,74.5374576 60.2191817,74.5625783 60.643561,74.5625783 Z M54.9956817,46.0308197 C55.0534059,46.0008887 55.1084576,45.9656128 55.1667162,45.9367507 C54.3168886,46.1158025 53.5012679,46.4038887 52.7198541,46.7694749 L53.7487334,46.7694749 C53.8925093,46.6727335 54.0368196,46.5770611 54.1843369,46.4867335 C54.2810783,46.4274059 54.3799576,46.3718197 54.4783024,46.3151645 C54.6488024,46.2162852 54.8214403,46.1216818 54.9956817,46.0308197 Z M49.6118369,69.2177507 C49.5124231,69.0616818 49.4135438,68.9056128 49.3184059,68.745268 C49.2735093,68.6688369 49.2312852,68.590268 49.1874576,68.512768 C49.0693369,68.3043197 48.9554921,68.0926645 48.8459231,67.8778025 C48.8058369,67.7992335 48.7652162,67.721199 48.726199,67.6415611 C48.6358714,67.45663 48.5498196,67.2690266 48.4659059,67.0798197 L46.4412852,67.0798197 C46.8047334,67.8361128 47.2232334,68.5517852 47.6946472,69.2177507 L49.6118369,69.2177507 Z M46.1954231,53.7177507 C45.9704059,54.2356645 45.7715783,54.7701473 45.6010783,55.321199 L47.6893024,55.321199 C47.7571817,55.0870956 47.8288024,54.85513 47.9057679,54.6253025 C47.9282162,54.5590266 47.9517334,54.4932852 47.9747162,54.4270094 C48.05863,54.1875611 48.1473541,53.9513197 48.2408886,53.7177507 L46.1954231,53.7177507 Z M44.8763196,60.1315438 C44.8763196,60.3116645 44.8912852,60.4875094 44.8971645,60.6660266 L47.0260093,60.6660266 C47.0206645,60.4880438 47.0142507,60.3105956 47.0142507,60.1315438 C47.0142507,59.7803887 47.0281472,59.4335094 47.0479231,59.0882335 C47.0484576,59.0796818 47.0484576,59.07113 47.0489921,59.0625783 L44.9180093,59.0625783 C44.895561,59.4164059 44.8763196,59.7713025 44.8763196,60.1315438 Z M47.0869403,61.7349921 L44.9618369,61.7349921 C45.0147507,62.27963 45.097061,62.8135783 45.2012852,63.3384404 L47.3092852,63.3384404 C47.2553024,63.0466128 47.207199,62.7526473 47.1676472,62.4549404 C47.1655093,62.4383714 47.1644403,62.4218025 47.1623024,62.4052335 C47.1334403,62.1828887 47.1072507,61.9600094 47.0869403,61.7349921 Z M47.4183196,56.3901645 L45.3076472,56.3901645 C45.1852507,56.9128887 45.0959921,57.4495094 45.0254403,57.9936128 L47.1468024,57.9936128 C47.1526817,57.9487163 47.1564231,57.9027507 47.1623024,57.8578542 C47.1644403,57.8412852 47.1655093,57.8247163 47.1676472,57.8081473 C47.2136128,57.4650094 47.2713369,57.1272163 47.3365438,56.7915611 C47.3499059,56.7210094 47.3648714,56.6509921 47.3793024,56.5809749 C47.3926645,56.5173714 47.4044231,56.4532335 47.4183196,56.3901645 Z M47.546061,64.4074059 L45.4508886,64.4074059 C45.5994748,64.9563197 45.7737162,65.4918714 45.9762852,66.0108542 L48.0356472,66.0108542 C48.0148024,65.95313 47.9950265,65.8943369 47.9747162,65.8355438 C47.9517334,65.7698025 47.9282162,65.7040611 47.9057679,65.6372507 C47.7999403,65.3208369 47.701061,65.0006818 47.6128714,64.6751818 C47.6064576,64.6516645 47.6016472,64.6270783 47.5952334,64.6035611 C47.57813,64.5388887 47.56263,64.4726128 47.546061,64.4074059 Z M49.3189403,51.5178197 C49.4648541,51.2708887 49.6171817,51.0293025 49.7748541,50.7925266 C49.8379231,50.6973887 49.9036645,50.6043887 49.9688714,50.5108542 L48.0965783,50.5108542 C47.5797334,51.1725438 47.1136645,51.8860783 46.709061,52.6487852 L48.7123024,52.6487852 C48.7171128,52.639699 48.7219231,52.6306128 48.7267334,52.6215266 C48.7657507,52.5418887 48.8063714,52.4638542 48.8464576,52.3852852 C48.9560265,52.1704231 49.0698714,51.958768 49.1879921,51.7503197 C49.2318196,51.6728197 49.2740438,51.5942507 49.3189403,51.5178197 Z M50.87963,47.8384404 C50.2168714,48.3066473 49.5974059,48.8448714 49.0233714,49.4418887 L50.7882334,49.4418887 C50.8710783,49.3430094 50.9528541,49.2435956 51.0383714,49.1473887 C51.1351128,49.0383542 51.2345265,48.9335956 51.3334059,48.827768 C51.4360265,48.718199 51.5402507,48.610768 51.6455438,48.5049404 C51.7503024,48.3991128 51.855061,48.2932852 51.9630265,48.1917335 C52.0913024,48.0709404 52.2238541,47.9544231 52.3564059,47.8384404 L50.87963,47.8384404 Z M48.52363,70.2867163 C49.0292507,70.8730438 49.5781645,71.4096645 50.1650265,71.8901645 L51.7727507,71.8901645 C51.7289231,71.8474059 51.6883024,71.8014404 51.6450093,71.7581473 C51.5397162,71.6523197 51.4354921,71.5448887 51.3328714,71.4353197 C51.2334576,71.3294921 51.1340438,71.2247335 51.0378369,71.115699 C50.8673369,70.9232852 50.7016472,70.7255266 50.5402334,70.5229576 C50.4782334,70.4449231 50.4183714,70.3658197 50.3579748,70.2867163 L48.52363,70.2867163 Z M55.1667162,74.3263369 C55.1084576,74.2974749 55.0534059,74.262199 54.9956817,74.2328025 C54.8214403,74.1419404 54.6488024,74.0473369 54.4783024,73.9484576 C54.3799576,73.891268 54.2810783,73.8362163 54.1843369,73.7768887 C53.9678714,73.6438025 53.7546128,73.503768 53.5450955,73.3578542 C53.4312507,73.2782163 53.3200783,73.1948369 53.2083714,73.1119921 C53.1399576,73.0606818 53.0699403,73.0115094 53.002061,72.95913 L51.7091472,72.95913 C52.7829231,73.59463 53.9411472,74.0681818 55.1667162,74.3263369 Z M64.520699,70.154699 C64.784199,70.0194749 65.1064921,70.123699 65.2411817,70.38613 C65.3758714,70.6485611 65.2721817,70.9708542 65.0097507,71.1055438 C64.6773024,71.2760438 64.332561,71.4289059 63.9862162,71.5593197 C63.9236817,71.5828369 63.8600783,71.5940611 63.7975438,71.5940611 C63.5810783,71.5940611 63.3774403,71.4620438 63.2972679,71.2477163 C63.1930438,70.9713887 63.3325438,70.6629921 63.6088714,70.5593025 C63.9172679,70.4433197 64.224061,70.3070266 64.520699,70.154699 Z M67.6035955,67.6239231 C67.7895955,67.395699 68.1268541,67.3604231 68.3550783,67.5469576 C68.5843714,67.7329576 68.6191128,68.0696818 68.4325783,68.2989749 C68.1974059,68.5875956 67.9478024,68.8660611 67.6912507,69.1258197 C67.5870265,69.2316473 67.44913,69.2845611 67.3112334,69.2845611 C67.1754748,69.2845611 67.0397162,69.2327163 66.9354921,69.1300956 C66.7254403,68.9221818 66.7233024,68.5838542 66.9312162,68.3738025 C67.1642507,68.13863 67.3903369,67.8863542 67.6035955,67.6239231 Z M60.643561,71.101268 C60.93913,71.101268 61.201561,71.3412507 61.201561,71.6362852 C61.201561,71.9313197 60.98563,72.170768 60.690061,72.170768 L60.6440955,72.170768 C60.2699576,72.170768 59.8926128,72.1483197 59.5238196,72.1044921 C59.2309231,72.0692163 59.0219403,71.8030438 59.0566817,71.5101473 C59.0914231,71.2172507 59.3501128,71.0125438 59.6510265,71.0424749 C59.977061,71.0814921 60.3116472,71.101268 60.643561,71.101268 Z M53.6124403,51.120699 C53.8203541,50.9106473 54.1586817,50.9101128 54.368199,51.1180266 C54.5782507,51.3259404 54.5793196,51.664268 54.3714059,51.8737852 C54.1373024,52.1094921 53.9106817,52.3612335 53.6974231,52.6225956 C53.59213,52.7519404 53.438199,52.8187507 53.283199,52.8187507 C53.1645438,52.8187507 53.0448196,52.779199 52.9454059,52.6979576 C52.7166472,52.5114231 52.6824403,52.174699 52.8695093,51.9459404 C53.1046817,51.6583887 53.3548196,51.3804576 53.6124403,51.120699 Z M70.7094748,59.5799576 C71.0050438,59.5799576 71.2439576,59.801768 71.2439576,60.096268 L71.2439576,60.1310094 C71.2439576,60.4885783 71.2305955,60.8466818 71.2033369,61.1962335 C71.1814231,61.4768369 70.9478541,61.6895611 70.6709921,61.6895611 C70.65763,61.6895611 70.643199,61.6890266 70.6293024,61.6879576 C70.3348024,61.6655094 70.1145955,61.4084231 70.1375783,61.1139231 C70.162699,60.79163 70.1749921,60.4613197 70.1749921,60.1315438 C70.1749921,59.8365094 70.4139059,59.5799576 70.7094748,59.5799576 Z M69.0504403,52.7963025 C69.21613,53.0405611 69.1519921,53.3730094 68.9077334,53.538699 C68.8158024,53.600699 68.7115783,53.63063 68.6084231,53.63063 C68.4373886,53.63063 68.2684921,53.5488542 68.1653369,53.3959921 C67.977199,53.1180611 67.773561,52.8460094 67.5608369,52.5873197 C67.3737679,52.3590956 67.4063714,52.0223714 67.634061,51.834768 C67.8628196,51.6471645 68.1984748,51.6803025 68.3866128,51.9079921 C68.6201817,52.1923369 68.8435955,52.4911128 69.0504403,52.7963025 Z M70.2118714,63.7564059 C70.4919403,63.8504749 70.64213,64.1540611 70.5469921,64.4330611 C70.4294059,64.7815438 70.2957852,65.1284231 70.1498714,65.4646128 C70.0622162,65.6655783 69.866061,65.7858369 69.6592162,65.7858369 C69.5886645,65.7858369 69.5159748,65.7719404 69.4464921,65.7414749 C69.1760438,65.6238887 69.0515093,65.3085438 69.16963,65.0380956 C69.3037852,64.729699 69.4267162,64.4116818 69.5346817,64.0920611 C69.6287507,63.8125266 69.9318024,63.661268 70.2118714,63.7564059 Z M56.5430093,50.1564921 C56.3484576,50.1564921 56.1608541,50.0506645 56.0662507,49.8657335 C55.9320955,49.602768 56.0368541,49.2804749 56.2992852,49.1463197 C56.6328024,48.9763542 56.9780783,48.8240266 57.3238886,48.6946818 C57.6023541,48.5904576 57.9086128,48.7310266 58.0117679,49.0078887 C58.1149231,49.2842163 57.9748886,49.5926128 57.698561,49.695768 C57.3901645,49.8106818 57.0828369,49.9464404 56.7856645,50.0982335 C56.7081645,50.1377852 56.6247852,50.1564921 56.5430093,50.1564921 Z M51.4798541,63.1609921 C51.56163,63.4880956 51.6578369,63.815199 51.7663369,64.1332163 C51.8620093,64.4127507 51.7123541,64.7163369 51.4333541,64.8120094 C51.3761645,64.8312507 51.3179059,64.8408714 51.2607162,64.8408714 C51.0383714,64.8408714 50.8309921,64.7013714 50.7550955,64.4790266 C50.6364403,64.1316128 50.5311472,63.7751128 50.4424231,63.4191473 C50.3713369,63.1326645 50.5455783,62.8424404 50.832061,62.7713542 C51.1164059,62.6997335 51.4082334,62.8745094 51.4798541,63.1609921 Z M51.8507852,54.5013025 C52.1212334,54.6199576 52.2441645,54.934768 52.1260438,55.2057507 C51.9913541,55.5120094 51.8678886,55.8300266 51.7593886,56.1507163 C51.6840265,56.3730611 51.4761128,56.51363 51.2532334,56.51363 C51.1965783,56.51363 51.1383196,56.5045438 51.0816645,56.4853025 C50.8026645,56.3901645 50.6524748,56.0865783 50.7470783,55.8070438 C50.8657334,55.4574921 51.0004231,55.1106128 51.1468714,54.7760266 C51.2649921,54.5055783 51.578199,54.3815783 51.8507852,54.5013025 Z M51.11213,60.1433025 C51.11213,60.4383369 50.8732162,60.6772507 50.5776472,60.6767163 C50.2959748,60.6767163 50.0645438,60.4581128 50.0447679,60.1812507 L50.04263,60.1310094 C50.04263,59.769699 50.057061,59.4035783 50.0853886,59.0428025 C50.1089059,58.7488369 50.3724059,58.5323714 50.6599576,58.5521473 C50.9544576,58.5756645 51.17413,58.8327507 51.1511472,59.1272507 C51.1254921,59.4495438 51.1126645,59.7766473 51.1115955,60.0994749 L51.11213,60.1433025 Z M53.1084231,66.8483887 C53.2997679,67.13113 53.5028714,67.4037163 53.7113196,67.65813 C53.8978541,67.8868887 53.8652507,68.2230783 53.6364921,68.4106818 C53.5370783,68.4924576 53.4173541,68.5320094 53.2981645,68.5320094 C53.1431645,68.5320094 52.9903024,68.465199 52.8844748,68.3363887 C52.6546472,68.0557852 52.4323024,67.7564749 52.2227852,67.4470094 C52.05763,67.2022163 52.1217679,66.8703025 52.3660265,66.7046128 C52.6113541,66.5394576 52.9427334,66.60413 53.1084231,66.8483887 Z M69.8019231,57.0801818 C69.7196128,56.7541473 69.6228714,56.4270438 69.5133024,56.1084921 C69.41763,55.8289576 69.5667507,55.5248369 69.8457507,55.4291645 C70.1247507,55.3318887 70.4288714,55.4820783 70.5250783,55.7610783 C70.6442679,56.1084921 70.749561,56.4649921 70.8388196,56.8204231 C70.9104403,57.1069059 70.7367334,57.39713 70.4502507,57.4687507 C70.4064231,57.4794404 70.36313,57.4847852 70.3198369,57.4847852 C70.0803886,57.4847852 69.8623196,57.3228369 69.8019231,57.0801818 Z M56.8049059,70.1750094 C57.0689403,70.30863 57.173699,70.6303887 57.0400783,70.8933542 C56.9460093,71.0788197 56.7578714,71.1857163 56.5627852,71.1857163 C56.4815438,71.1857163 56.3992334,71.1675438 56.3217334,71.1279921 C55.9908886,70.9601645 55.6659231,70.7720266 55.3543196,70.5678542 C55.1073886,70.4064404 55.0384403,70.0750611 55.1998541,69.82813 C55.3618024,69.5817335 55.6931817,69.5117163 55.9401128,69.6736645 C56.2185783,69.8564576 56.5098714,70.0253542 56.8049059,70.1750094 Z M60.643561,49.1618197 C60.3479921,49.1618197 60.0973196,48.9223714 60.0973196,48.6273369 C60.0973196,48.3323025 60.3250093,48.0928542 60.6205783,48.0928542 L60.643561,48.0928542 C61.0080783,48.0928542 61.3763369,48.1142335 61.7376472,48.1564576 C62.0310783,48.19013 62.2405955,48.455768 62.2069231,48.7486645 C62.1759231,49.0212507 61.9444921,49.2216818 61.6767162,49.2216818 C61.6564059,49.2216818 61.635561,49.2206128 61.6147162,49.2179404 C61.2940265,49.1805266 60.9669231,49.1618197 60.643561,49.1618197 Z M64.4629748,50.0784576 C64.1989403,49.9459059 64.0931128,49.6241473 64.226199,49.3606473 C64.3587507,49.0971473 64.6789059,48.9902507 64.9440093,49.1238714 C65.2737852,49.2895611 65.5992852,49.4771645 65.9124921,49.6813369 C66.1599576,49.8422163 66.2299748,50.1735956 66.068561,50.4210611 C65.9659403,50.578199 65.7949059,50.6637163 65.62013,50.6637163 C65.5196472,50.6637163 65.4191645,50.6359231 65.3288369,50.57713 C65.0487679,50.3943369 64.7574748,50.2265094 64.4629748,50.0784576 Z M66.2716645,54.4964921 C66.5950265,54.4964921 66.8045438,54.7060094 66.8045438,55.0293714 C66.8045438,55.3527335 66.5950265,55.5622507 66.2716645,55.5622507 L65.2096472,55.5622507 C65.1412334,55.5622507 65.0674748,55.5782852 64.9963886,55.6980094 L61.6612162,60.9102852 L63.5629059,60.9134921 C63.8862679,60.9134921 64.0957852,61.1230094 64.0957852,61.4463714 C64.0957852,61.7697335 63.8862679,61.9792507 63.5629059,61.9792507 L61.3496128,61.9792507 L61.3512162,62.5190783 L63.5629059,62.5174749 C63.8862679,62.5174749 64.0957852,62.7264576 64.0957852,63.0498197 C64.0957852,63.3731818 63.8862679,63.582699 63.5629059,63.582699 L61.3496128,63.582699 L61.3512162,65.7259749 L62.5890783,65.7238369 C62.9124403,65.7238369 63.1219576,65.9333542 63.1219576,66.2567163 C63.1219576,66.5800783 62.9124403,66.7895956 62.5890783,66.7895956 L59.04813,66.7895956 C58.7242334,66.7895956 58.5152507,66.5800783 58.5152507,66.2567163 C58.5152507,65.9333542 58.7247679,65.7238369 59.04813,65.7238369 L60.2875955,65.7238369 L60.2859921,63.5810956 L58.0743024,63.582699 C57.7509403,63.582699 57.5414231,63.3731818 57.5414231,63.0498197 C57.5414231,62.7264576 57.7509403,62.5174749 58.0743024,62.5174749 L60.2875955,62.5174749 L60.2859921,61.9771128 L58.0743024,61.9792507 C57.7509403,61.9792507 57.5414231,61.7697335 57.5414231,61.4463714 C57.5414231,61.1230094 57.7509403,60.9134921 58.0743024,60.9134921 L59.9551472,60.9134921 L56.6210438,55.694268 C56.5520955,55.5782852 56.4783369,55.5622507 56.4099231,55.5622507 L55.3473714,55.5622507 C55.0234748,55.5622507 54.8144921,55.3527335 54.8144921,55.0293714 C54.8144921,54.7060094 55.0240093,54.4964921 55.3473714,54.4964921 L58.7114059,54.4964921 C59.0347679,54.4964921 59.2442852,54.7060094 59.2442852,55.0293714 C59.2442852,55.3527335 59.0347679,55.5622507 58.7114059,55.5622507 L57.7798024,55.5622507 L60.800699,60.1994231 L63.8370955,55.5638542 L62.90763,55.5622507 C62.5842679,55.5622507 62.3747507,55.3527335 62.3747507,55.0293714 C62.3747507,54.7060094 62.5842679,54.4964921 62.90763,54.4964921 L66.2716645,54.4964921 Z" id="Combined-Shape" transform="translate(59.040113, 60.131544) rotate(-31.000000) translate(-59.040113, -60.131544) "></path>
                <path d="M328.064884,124.679815 C328.546628,124.679815 328.936977,125.075421 328.936977,125.563653 L328.936977,133.380673 C328.936977,140.333535 323.355581,145.990101 316.495116,145.990101 C309.634651,145.990101 304.053256,140.333535 304.053256,133.380673 L304.053256,119.700859 C304.053256,119.212626 304.443605,118.81702 304.925349,118.81702 C305.407093,118.81702 305.797442,119.212626 305.797442,119.700859 L305.797442,126.949276 C306.379651,125.958434 307.091395,125.054327 307.909884,124.262407 L307.909884,119.826481 C307.909884,119.338249 308.300233,118.942643 308.781977,118.942643 C309.263721,118.942643 309.65407,119.338249 309.65407,119.826481 L309.65407,122.853923 C310.316744,122.41 311.023488,122.028771 311.766395,121.718249 L311.766395,117.99069 C311.766395,117.502458 312.156744,117.106852 312.638488,117.106852 C313.120233,117.106852 313.510581,117.502458 313.510581,117.99069 L313.510581,121.138805 C314.467209,120.899226 315.466512,120.771246 316.495116,120.771246 C318.23907,120.771246 319.899884,121.137391 321.407907,121.796734 L321.407907,118.930976 C321.407907,118.442744 321.798256,118.047138 322.28,118.047138 C322.761744,118.047138 323.152093,118.442744 323.152093,118.930976 L323.152093,122.732542 C324.802907,123.79633 326.190581,125.243468 327.192791,126.949276 L327.192791,125.563653 C327.192791,125.075421 327.58314,124.679815 328.064884,124.679815 Z M316.495116,144.222424 C322.393721,144.222424 327.192791,139.358838 327.192791,133.380673 C327.192791,127.402508 322.393837,122.538923 316.495116,122.538923 C310.596395,122.538923 305.797442,127.402508 305.797442,133.380673 C305.797442,139.358838 310.596512,144.222424 316.495116,144.222424 Z M316.495116,123.702643 C321.760698,123.702643 326.044535,128.044175 326.044535,133.380673 C326.044535,138.717172 321.760698,143.058704 316.495116,143.058704 C311.229535,143.058704 306.945698,138.717172 306.945698,133.380673 C306.945698,128.044175 311.229535,123.702643 316.495116,123.702643 Z M316.495116,141.291027 C320.798953,141.291027 324.300349,137.742475 324.300349,133.380673 C324.300349,129.018872 320.798953,125.47032 316.495116,125.47032 C312.191279,125.47032 308.689884,129.018872 308.689884,133.380673 C308.689884,137.742475 312.191279,141.291027 316.495116,141.291027 Z M317.367209,127.592121 C318.834767,127.943064 319.961163,129.082508 320.105,129.233232 C320.44,129.584057 320.43093,130.143586 320.084651,130.48298 C319.73907,130.821785 319.188372,130.8133 318.853256,130.464242 C318.62407,130.226785 318.031512,129.722997 317.367209,129.447357 L317.367209,132.664764 C318.817442,133.045051 319.89186,134.38436 319.89186,135.973502 C319.89186,137.562643 318.817442,138.901953 317.367209,139.282357 L317.367209,139.773418 C317.367209,140.26165 316.97686,140.657256 316.495116,140.657256 C316.013372,140.657256 315.623023,140.26165 315.623023,139.773418 L315.623023,139.249242 C314.164186,138.807205 312.998721,137.464832 312.847907,137.285236 C312.535698,136.913552 312.58,136.355791 312.946744,136.039377 C313.313721,135.722963 313.863953,135.768098 314.176047,136.139545 C314.396279,136.399747 314.987209,136.987795 315.623023,137.340269 L315.623023,134.198519 C314.204186,133.796902 313.16,132.473973 313.16,130.907104 C313.16,129.340118 314.204302,128.016953 315.623023,127.615337 L315.623023,127.106364 C315.623023,126.618131 316.013372,126.222525 316.495116,126.222525 C316.97686,126.222525 317.367209,126.618131 317.367209,127.106364 L317.367209,127.592121 Z M314.904186,130.907104 C314.904186,131.477003 315.189767,131.980084 315.623023,132.276582 L315.623023,129.537391 C315.189767,129.833889 314.904186,130.337088 314.904186,130.907104 Z M318.147674,135.973502 C318.147674,135.377677 317.834302,134.85633 317.367209,134.566313 L317.367209,137.38069 C317.834302,137.090791 318.147674,136.569444 318.147674,135.973502 Z M308.781977,116.676128 C308.300233,116.676128 307.909884,116.280522 307.909884,115.79229 L307.909884,113.838064 C307.909884,113.349832 308.300233,112.954226 308.781977,112.954226 C309.263721,112.954226 309.65407,113.349832 309.65407,113.838064 L309.65407,115.79229 C309.65407,116.280522 309.263721,116.676128 308.781977,116.676128 Z M328.064884,118.81702 C328.546628,118.81702 328.936977,119.212626 328.936977,119.700859 L328.936977,121.655084 C328.936977,122.143316 328.546628,122.538923 328.064884,122.538923 C327.58314,122.538923 327.192791,122.143316 327.192791,121.655084 L327.192791,119.700859 C327.192791,119.212626 327.58314,118.81702 328.064884,118.81702 Z M322.28,116.468838 C321.798256,116.468838 321.407907,116.073232 321.407907,115.585 L321.407907,113.630774 C321.407907,113.142542 321.798256,112.746936 322.28,112.746936 C322.761744,112.746936 323.152093,113.142542 323.152093,113.630774 L323.152093,115.585 C323.152093,116.073232 322.761744,116.468838 322.28,116.468838 Z M316.495116,118.630471 C316.013372,118.630471 315.623023,118.234865 315.623023,117.746633 L315.623023,113.838064 C315.623023,113.349832 316.013372,112.954226 316.495116,112.954226 C316.97686,112.954226 317.367209,113.349832 317.367209,113.838064 L317.367209,117.746633 C317.367209,118.234865 316.97686,118.630471 316.495116,118.630471 Z M312.638488,114.721902 C312.156744,114.721902 311.766395,114.326296 311.766395,113.838064 L311.766395,111.883838 C311.766395,111.395606 312.156744,111 312.638488,111 C313.120233,111 313.510581,111.395606 313.510581,111.883838 L313.510581,113.838064 C313.510581,114.326296 313.120233,114.721902 312.638488,114.721902 Z" id="Combined-Shape" opacity="0.600000024" transform="translate(316.495116, 128.495051) rotate(142.000000) translate(-316.495116, -128.495051) "></path>
                <path d="M32.8536028,306.790793 L37.2224607,302.419357 C37.6953054,301.945849 38.304617,301.671073 38.9365503,301.644693 C39.6055478,301.620229 40.2249544,301.866046 40.7028097,302.343312 C41.1807388,302.820578 41.4284719,303.44809 41.4014291,304.108982 C41.3750494,304.741579 41.1002734,305.350817 40.6267655,305.824325 L37.4827942,308.967633 C37.2369769,309.213524 36.8395132,309.213524 36.5936959,308.967633 C36.3478049,308.721815 36.3478049,308.324425 36.5936959,308.078534 L39.7374462,304.934489 C39.9870952,304.684914 40.1316676,304.373663 40.1442679,304.057991 C40.1574578,303.747404 40.0423599,303.461943 39.8134904,303.232411 C39.5840314,303.003541 39.3085922,302.887854 38.9879096,302.901707 C38.6723114,302.914307 38.3610606,303.058879 38.1114116,303.308529 L33.7099107,307.710029 C33.6382877,307.776052 32.6365968,308.690351 32.6365968,310.409452 L32.6365968,313.553423 C32.6365968,313.900485 32.3555574,314.182188 32.007832,314.182188 C31.6601066,314.182188 31.3790672,313.900485 31.3790672,313.553423 L31.3790672,310.409452 C31.3790672,308.095556 32.7932538,306.842963 32.8536028,306.790793 Z M14.4018284,313.553423 C14.240824,313.553423 14.0798932,313.491821 13.9572793,313.369207 L8.9269399,308.338868 C8.90557089,308.323762 7.48512101,307.098212 7.48512101,304.750347 L7.48512101,295.318507 C7.48512101,293.931437 8.61318384,292.803374 10.0003275,292.803448 C11.3873975,292.803448 12.5154604,293.931437 12.5154604,295.318581 L12.5154604,300.296677 C12.5154604,300.643739 12.234421,300.925441 11.8866956,300.925441 C11.5389702,300.925441 11.2579308,300.643739 11.2579308,300.296677 L11.2579308,295.318581 C11.2579308,294.624972 10.6938625,294.060978 10.0003275,294.060978 C9.30671884,294.060978 8.74272427,294.625046 8.74272427,295.318581 L8.74272427,304.750421 C8.74272427,306.492143 9.73807816,307.380062 9.7802267,307.417127 L14.8463776,312.480109 C15.0922686,312.725926 15.0922686,313.123316 14.8463776,313.369207 C14.7237637,313.491821 14.5628329,313.553423 14.4018284,313.553423 Z M11.2962476,304.108982 C11.2692048,303.448164 11.516938,302.820652 11.9947933,302.343386 C12.4720592,301.86612 13.0894763,301.621482 13.7610528,301.644767 C14.3929861,301.671146 15.0022977,301.945922 15.4751424,302.41943 L19.8765696,306.820931 C19.9042756,306.842963 21.3183885,308.095482 21.3183885,310.409452 L21.3183885,313.553423 C21.3183885,313.900485 21.0373491,314.182188 20.6896237,314.182188 C20.3418983,314.182188 20.0608589,313.900485 20.0608589,313.553423 L20.0608589,310.409525 C20.0608589,308.690425 19.0592417,307.7762 19.0170931,307.737809 L14.5860441,303.308602 C14.3364687,303.058953 14.025218,302.914381 13.7095461,302.90178 C13.3907794,302.887927 13.113498,303.003615 12.8839653,303.232484 C12.6550221,303.461943 12.5399979,303.747478 12.5531877,304.058065 C12.5657881,304.373737 12.7103605,304.684988 12.9600095,304.933974 L16.1039808,308.078534 C16.3497982,308.324352 16.3497982,308.721742 16.1039808,308.967633 C15.8581635,309.213524 15.4607736,309.213524 15.2148825,308.967633 L12.0709112,305.823661 C11.5974034,305.350817 11.3226273,304.741579 11.2962476,304.108982 Z M21.9473006,315.439791 C22.2950261,315.439791 22.5760654,315.721493 22.5759917,316.068556 L22.5759917,318.583689 C22.5759917,318.930751 22.2949524,319.212453 21.9472269,319.212453 C21.5995015,319.212453 21.3184622,318.930751 21.3184622,318.583689 L21.3184622,316.697321 L12.5153867,316.697321 L12.5153867,318.583689 C12.5153867,318.930751 12.2343473,319.212453 11.8866219,319.212453 C11.5388965,319.212453 11.2578571,318.930751 11.2578571,318.583689 L11.2578571,316.068556 C11.2578571,315.721493 11.5388965,315.439791 11.8866219,315.439791 L21.9473006,315.439791 Z M40.8109812,315.439791 C41.1587066,315.439791 41.4397459,315.721493 41.4396723,316.068556 L41.4396723,318.583689 C41.4396723,318.930751 41.1586329,319.212453 40.8109075,319.212453 C40.463182,319.212453 40.1821427,318.930751 40.1821427,318.583689 L40.1821427,316.697321 L31.3790672,316.697321 L31.3790672,318.583689 C31.3790672,318.930751 31.0980278,319.212453 30.7503024,319.212453 C30.402577,319.212453 30.1215376,318.930751 30.1215376,318.583689 L30.1215376,316.068556 C30.1215376,315.721493 30.402577,315.439791 30.7503024,315.439791 L40.8109812,315.439791 Z M42.6973492,292.803374 C44.0844192,292.803374 45.2124821,293.931437 45.2124821,295.318581 L45.2124821,304.750421 C45.2124821,307.098286 43.7920322,308.323836 43.7316831,308.374753 L38.7403238,313.369207 C38.6177099,313.491821 38.4567791,313.553423 38.2957746,313.553423 C38.1348439,313.553423 37.9738394,313.491821 37.8512255,313.369207 C37.6053344,313.12339 37.6053344,312.726 37.8512255,312.480109 L42.8816385,307.44977 C42.9595986,307.379915 43.9549525,306.492069 43.9549525,304.750347 L43.9549525,295.318507 C43.9549525,294.624898 43.3909579,294.060904 42.6973492,294.060904 C42.0037405,294.060904 41.4397459,294.624972 41.4397459,295.318507 L41.4397459,300.296603 C41.4397459,300.643665 41.1587066,300.925368 40.8109812,300.925368 C40.4632557,300.925368 40.1822164,300.643665 40.1822164,300.296603 L40.1822164,295.318507 C40.1822164,293.931437 41.3102055,292.803374 42.6973492,292.803374 Z M37.6670098,292.803374 C37.6670098,299.044084 32.5895113,304.121583 26.3488015,304.121583 C20.1080918,304.121583 15.0305932,299.044084 15.0305932,292.803374 C15.0305932,286.562665 20.1080918,281.485166 26.3488015,281.485166 C32.5895113,281.485166 37.6670098,286.562665 37.6670098,292.803374 Z M26.3488015,302.863979 C31.8959763,302.863979 36.4094066,298.350549 36.4094066,292.803374 C36.4094066,287.2562 31.8959763,282.742769 26.3488015,282.742769 C20.8016268,282.742769 16.2881965,287.2562 16.2881965,292.803374 C16.2881965,298.350549 20.8016268,302.863979 26.3488015,302.863979 Z M26.3488015,284.000299 C31.2030308,284.000299 35.151877,287.949145 35.151877,292.803374 C35.151877,297.657604 31.2030308,301.60645 26.3488015,301.60645 C21.4945723,301.60645 17.5457261,297.657677 17.5457261,292.803374 C17.5457261,287.949071 21.4945723,284.000299 26.3488015,284.000299 Z M26.3488015,300.348847 C30.5094957,300.348847 33.8942737,296.964069 33.8942737,292.803374 C33.8942737,288.64268 30.5094957,285.257902 26.3488015,285.257902 C22.1881073,285.257902 18.8033293,288.64268 18.8033293,292.803374 C18.8033293,296.964069 22.1881073,300.348847 26.3488015,300.348847 Z M26.3488015,289.659403 C25.6552665,289.659403 25.0911983,290.223471 25.0911983,290.917006 C25.0911983,291.610615 25.6552665,292.17461 26.3488015,292.17461 C27.7358715,292.17461 28.8639344,293.302599 28.8639344,294.689742 C28.8639344,295.858038 28.0597226,296.834602 26.9775663,297.115641 L26.9775663,297.204949 C26.9775663,297.552011 26.696527,297.833714 26.3488015,297.833714 C26.0010761,297.833714 25.7200367,297.552011 25.7200367,297.204949 L25.7200367,297.115641 C24.6378804,296.834528 23.8336687,295.858038 23.8336687,294.689742 C23.8336687,294.34268 24.1147081,294.060978 24.4624335,294.060978 C24.8101589,294.060978 25.0911983,294.34268 25.0911983,294.689742 C25.0911983,295.383351 25.6552665,295.947346 26.3488015,295.947346 C27.0424102,295.947346 27.6064048,295.383351 27.6064048,294.689742 C27.6064048,293.996134 27.0423365,293.432139 26.3488015,293.432139 C24.9617315,293.432139 23.8336687,292.30415 23.8336687,290.917006 C23.8336687,289.748711 24.6378804,288.772147 25.7200367,288.491107 L25.7200367,288.4018 C25.7200367,288.054737 26.0010761,287.773035 26.3488015,287.773035 C26.696527,287.773035 26.9775663,288.054737 26.9775663,288.4018 L26.9775663,288.491107 C28.0597226,288.772221 28.8639344,289.748711 28.8639344,290.917006 C28.8639344,291.264069 28.582895,291.545771 28.2351696,291.545771 C27.8874442,291.545771 27.6064048,291.264069 27.6064048,290.917006 C27.6064048,290.223398 27.0423365,289.659403 26.3488015,289.659403 Z" id="Combined-Shape" opacity="0.800000012" transform="translate(26.348802, 300.348810) rotate(-54.000000) translate(-26.348802, -300.348810) "></path>
                <path d="M336.300636,377.118823 L335.499636,377.118823 L333.699636,372.618823 L342.712573,372.618823 C343.798198,372.618823 344.681323,371.735698 344.681323,370.650073 C344.681323,369.564448 343.798198,368.681323 342.712573,368.681323 L339.056323,368.681323 L339.056323,366.993823 L339.056323,364.743823 L339.056323,351.243823 C339.056323,350.932761 338.804886,350.681323 338.493823,350.681323 L314.868823,350.681323 C314.557761,350.681323 314.306323,350.932761 314.306323,351.243823 L314.306323,364.743823 L314.306323,366.993823 L314.306323,368.681323 L310.650073,368.681323 C309.564448,368.681323 308.681323,369.564448 308.681323,370.650073 C308.681323,371.735698 309.564448,372.618823 310.650073,372.618823 L313.558198,372.618823 C313.476073,372.831448 313.433886,373.060386 313.440073,373.296636 C313.451886,373.783198 313.657761,374.230948 314.015511,374.554386 L323.967823,383.689948 C324.488698,384.168073 325.164261,384.431323 325.870198,384.431323 L336.243823,384.431323 L336.243823,386.681323 L337.368823,386.681323 L337.368823,377.681323 C337.368823,376.750948 338.125948,375.993823 339.056323,375.993823 L344.681323,375.993823 L344.681323,374.868823 L339.056323,374.868823 C337.698448,374.868823 336.562198,375.836886 336.300636,377.118823 Z M315.431323,365.306323 L337.931323,365.306323 L337.931323,366.431323 L315.431323,366.431323 L315.431323,365.306323 Z M315.431323,351.806323 L337.931323,351.806323 L337.931323,364.181323 L315.431323,364.181323 L315.431323,351.806323 Z M315.431323,367.556323 L337.931323,367.556323 L337.931323,368.681323 L315.431323,368.681323 L315.431323,367.556323 Z M309.806323,370.650073 C309.806323,370.184886 310.184886,369.806323 310.650073,369.806323 L314.868823,369.806323 L338.493823,369.806323 L342.712573,369.806323 C343.177761,369.806323 343.556323,370.184886 343.556323,370.650073 C343.556323,371.115261 343.177761,371.493823 342.712573,371.493823 L332.868823,371.493823 L330.618823,371.493823 L310.650073,371.493823 C310.184886,371.493823 309.806323,371.115261 309.806323,370.650073 Z M320.903323,376.038261 L319.983636,373.522761 C319.908823,373.347823 319.914448,373.158261 319.998261,372.987823 C320.082636,372.817386 320.231136,372.698136 320.415636,372.652011 C320.690698,372.583386 320.982073,372.707698 321.117636,372.944511 L323.314761,376.986636 L323.308011,377.076073 L323.365948,377.080573 L324.631011,379.408198 L320.903323,376.038261 Z M325.731261,372.797136 C325.840948,372.913011 325.897198,373.064323 325.889323,373.222948 L325.609198,378.850761 L324.462261,376.740823 L324.740136,373.149823 C324.763198,372.852261 325.015198,372.618823 325.313886,372.618823 C325.473636,372.618823 325.621011,372.682386 325.731261,372.797136 Z M323.618511,373.063198 L323.474511,374.923386 L322.221261,372.618823 L323.721448,372.618823 C323.670261,372.760011 323.630323,372.906823 323.618511,373.063198 Z M326.914198,372.618823 L330.056323,372.618823 L330.056323,377.333698 L326.728573,378.997573 L327.013198,373.278636 C327.024448,373.049698 326.989011,372.826948 326.914198,372.618823 Z M318.942448,372.618823 C318.769198,373.051386 318.763573,373.530636 318.938511,373.936761 L319.115698,374.422198 L317.120511,372.618823 L318.942448,372.618823 Z M325.870198,383.306323 C325.446636,383.306323 325.041073,383.148823 324.728886,382.861948 L314.773198,373.723573 C314.643261,373.605448 314.569011,373.444011 314.564511,373.268511 C314.560011,373.093011 314.625823,372.928761 314.750136,372.804448 C314.988073,372.567636 315.370011,372.556948 315.616386,372.775761 L319.942573,376.686261 L319.965636,376.749261 L319.998823,376.737448 L324.616948,380.911761 C324.789636,381.067573 325.039386,381.101886 325.245823,380.997261 L330.870823,378.184761 C331.060948,378.089136 331.181323,377.894511 331.181323,377.681323 L331.181323,372.618823 L332.488011,372.618823 L334.596261,377.890011 C334.682323,378.103761 334.888761,378.243823 335.118823,378.243823 L336.243823,378.243823 L336.243823,383.306323 L325.870198,383.306323 Z M336.243261,355.181886 C336.553761,355.181886 336.805761,355.433323 336.805761,355.744386 L336.806323,360.244386 C336.806323,360.393448 336.746698,360.536323 336.641511,360.642073 C336.536323,360.747823 336.393448,360.806886 336.243823,360.806886 C335.313448,360.806886 334.556323,361.564011 334.556323,362.493823 C334.556323,362.804886 334.304886,363.056323 333.993823,363.056323 L319.368823,363.056323 C319.219198,363.056323 319.076886,362.997823 318.971136,362.892073 C318.865386,362.786323 318.806323,362.644011 318.806323,362.494386 C318.806323,361.564011 318.049198,360.806886 317.118823,360.806323 C316.807761,360.806323 316.556323,360.554323 316.556323,360.243823 L316.556323,355.743823 C316.556323,355.432761 316.807761,355.181323 317.118823,355.181323 C318.049198,355.181323 318.806323,354.424198 318.806323,353.493823 C318.806323,353.182761 319.057761,352.931323 319.368823,352.931323 L333.993823,352.931323 C334.304886,352.931323 334.556323,353.182761 334.556323,353.493823 C334.556323,354.424198 335.313448,355.181886 336.243261,355.181886 Z M335.680761,359.738698 L335.681323,356.250073 C334.581073,356.026198 333.712011,355.157136 333.487573,354.056886 L319.874511,354.056323 C319.650636,355.156573 318.781573,356.025636 317.681323,356.249511 L317.681323,359.738136 C318.781573,359.962573 319.650636,360.806323 319.874511,361.931323 L333.488136,361.931323 C333.712011,360.806323 334.580511,359.962573 335.680761,359.738698 Z M326.681323,355.181323 C328.232136,355.181323 329.493823,356.443011 329.493823,357.993823 C329.493823,359.544636 328.232136,360.806323 326.681323,360.806323 C325.130511,360.806323 323.868823,359.544636 323.868823,357.993823 C323.868823,356.443011 325.130511,355.181323 326.681323,355.181323 Z M326.681323,359.681323 C327.611698,359.681323 328.368823,358.924198 328.368823,357.993823 C328.368823,357.063448 327.611698,356.306323 326.681323,356.306323 C325.750948,356.306323 324.993823,357.063448 324.993823,357.993823 C324.993823,358.924198 325.750948,359.681323 326.681323,359.681323 Z" id="Combined-Shape" opacity="0.600000024" transform="translate(326.681323, 368.681323) scale(-1, 1) rotate(-18.000000) translate(-326.681323, -368.681323) "></path>
                <path d="M262.628017,537.363515 L272.368626,537.363515 L272.368626,551.259515 L262.628017,551.259515 L262.628017,537.363515 Z M270.90217,549.791109 L270.902076,549.791109 L270.902076,538.831827 L264.094379,538.831827 L264.094379,549.791109 L270.90217,549.791109 Z M288.854485,537.585234 L288.854485,537.585421 L300.645774,537.585421 L300.645774,541.593702 L284.037266,546.885702 L274.501134,544.832296 L273.445132,544.871202 L273.391298,543.403827 L274.630431,543.358265 L283.964425,545.367984 L299.179505,540.519984 L299.179505,539.053827 L288.231782,539.053827 C287.562453,539.993202 286.466005,540.607452 285.228369,540.607452 L278.727296,540.607452 L278.727296,539.139046 L285.228369,539.139046 C286.196738,539.139046 287.022421,538.515421 287.325861,537.648327 L276.076009,537.648327 L274.893987,538.831921 L273.408337,538.831921 L273.408337,537.363515 L274.286638,537.363515 L275.46866,536.179921 L288.916558,536.179921 L288.916558,536.914077 C288.916558,537.14339 288.894556,537.367452 288.854485,537.585234 Z M299.790317,504.886077 L309.530927,504.886077 L309.530927,518.781984 L299.790317,518.781984 L299.790317,504.886077 Z M301.25668,517.313577 L308.064377,517.313577 L308.064377,506.354484 L301.25668,506.354484 L301.25668,517.313577 Z M297.264863,511.443046 L298.750419,511.443046 L298.750419,512.911359 L297.872118,512.911359 L296.690096,514.094952 L283.242104,514.094952 L283.242104,513.360796 C283.242104,513.10814 283.267758,512.86139 283.316349,512.622796 L271.317399,512.622796 L271.317399,508.68464 L288.016068,503.259515 L297.631033,505.185984 L298.746206,505.229484 L298.689094,506.696671 L297.457357,506.648577 L297.400246,506.637234 L288.10417,504.774609 L272.783855,509.75189 L272.783855,511.15439 L283.974537,511.15439 C284.64761,510.252515 285.72215,509.667609 286.930481,509.667609 L293.431555,509.667609 L293.431555,511.135921 L286.930481,511.135921 C285.962112,511.135921 285.136523,511.759546 284.832989,512.62664 L296.082841,512.62664 L297.264863,511.443046 Z M286.079425,517.100577 C290.52467,517.100577 294.141049,520.721859 294.141049,525.173015 C294.141049,529.624171 290.52467,533.245359 286.079425,533.245359 C281.63418,533.245359 278.017802,529.624171 278.017802,525.173015 C278.017802,520.721859 281.63418,517.100577 286.079425,517.100577 Z M286.079425,531.777046 C289.715933,531.777046 292.674592,528.814452 292.674592,525.173109 C292.674592,521.531577 289.715933,518.569077 286.079425,518.569077 C282.442917,518.569077 279.484258,521.531671 279.484258,525.173109 C279.484258,528.814452 282.442917,531.777046 286.079425,531.777046 Z M305.827383,513.405984 L307.293839,513.405984 L307.293839,514.87439 L305.827383,514.87439 L305.827383,513.405984 Z M264.865292,546.395484 L266.331748,546.395484 L266.331748,547.86389 L264.865292,547.86389 L264.865292,546.395484 Z M286.633126,524.397421 C287.356102,524.673327 288.27073,525.182952 288.270917,526.424484 C288.270917,527.333015 287.545975,528.017952 286.763921,528.312046 L286.763921,529.362234 L285.39521,529.362234 L285.39521,528.423796 C284.613156,528.360609 284.546588,528.233765 284.228917,528.047109 L283.888963,527.860546 L284.429463,526.211202 L284.927925,526.535202 C285.156558,526.684171 285.575158,526.844952 285.950409,526.844952 C286.211624,526.844952 286.525551,526.786921 286.525551,526.512046 C286.525551,526.368327 286.531168,526.219265 285.844425,525.964921 C284.440979,525.464952 284.156357,524.639484 284.156357,524.035171 C284.156357,523.217671 284.613062,522.564796 285.395116,522.242671 L285.395116,520.649952 L286.76364,520.649952 L286.76364,522.069796 C286.76364,522.129515 287.574531,522.24464 287.859901,522.413484 L288.271947,522.603609 L287.720586,524.203077 L287.230644,523.895109 C287.117825,523.823577 286.805023,523.658484 286.384738,523.658484 C286.176608,523.658484 285.942638,523.72889 285.942638,523.925296 C285.942638,524.023452 285.919606,524.125265 286.633126,524.397421 Z" id="Combined-Shape" opacity="0.699999988" transform="translate(286.079472, 527.259515) rotate(36.000000) translate(-286.079472, -527.259515) "></path>
            </g>
        </g>
    </g>
</svg>