<?xml version="1.0" encoding="UTF-8"?>
<svg width="60px" height="54px" viewBox="0 0 60 54" version="1.1" xmlns="http://www.w3.org/2000/svg" xmlns:xlink="http://www.w3.org/1999/xlink">
    <!-- Generator: Sketch 44.1 (41455) - http://www.bohemiancoding.com/sketch -->
    <title>bank cloud</title>
    <desc>Created with Sketch.</desc>
    <defs></defs>
    <g id="Page-1" stroke="none" stroke-width="1" fill="none" fill-rule="evenodd">
        <g id="cloudcoin-iphone-app" transform="translate(-149.000000, -241.000000)">
            <g id="bank" transform="translate(58.000000, 241.000000)">
                <g id="bank-cloud" transform="translate(91.000000, 0.000000)">
                    <path d="M53,35 C50.2385763,35 48,32.7614237 48,30 C48,27.2385763 50.2385763,25 53,25 C55.7614237,25 58,27.2385763 58,30 C58,32.7614237 55.7614237,35 53,35 Z M53,33 C54.6568542,33 56,31.6568542 56,30 C56,28.3431458 54.6568542,27 53,27 C51.3431458,27 50,28.3431458 50,30 C50,31.6568542 51.3431458,33 53,33 Z" id="Oval-2" fill="#83DC93" fill-rule="nonzero" opacity="0.400000006"></path>
                    <path d="M4,13 C1.790861,13 0,11.209139 0,9 C0,6.790861 1.790861,5 4,5 C6.209139,5 8,6.790861 8,9 C8,11.209139 6.209139,13 4,13 Z M4,11 C5.1045695,11 6,10.1045695 6,9 C6,7.8954305 5.1045695,7 4,7 C2.8954305,7 2,7.8954305 2,9 C2,10.1045695 2.8954305,11 4,11 Z" id="Oval-2" fill="#D9F4DE" fill-rule="nonzero" opacity="0.200000003"></path>
                    <path d="M22.0710678,38.0710678 L22.0710678,34.0710678 L20.0710678,34.0710678 L20.0710678,38.0710678 L16.0710678,38.0710678 L16.0710678,40.0710678 L20.0710678,40.0710678 L20.0710678,44.0710678 L22.0710678,44.0710678 L22.0710678,40.0710678 L26.0710678,40.0710678 L26.0710678,38.0710678 L22.0710678,38.0710678 Z" id="Combined-Shape" fill="#A9E6AC" transform="translate(21.071068, 39.071068) rotate(-315.000000) translate(-21.071068, -39.071068) "></path>
                    <path d="M53.5480866,49.6478317 L55.6020884,47.7984002 L52.725656,46.6691142 L53.5480866,49.6478317 Z M59.3452168,47.1193377 L52.4814807,53.2994735 L49.733213,43.3456695 L59.3452168,47.1193377 Z" id="Triangle" fill="#83DC93" fill-rule="nonzero" opacity="0.400000006"></path>
                    <path d="M32.5480866,15.6478317 L34.6020884,13.7984002 L31.725656,12.6691142 L32.5480866,15.6478317 Z M38.3452168,13.1193377 L31.4814807,19.2994735 L28.733213,9.34566947 L38.3452168,13.1193377 Z" id="Triangle" fill="#83DC93" fill-rule="nonzero" opacity="0.400000006"></path>
                    <path d="M32,31 L32,35 L36,35 L36,31 L32,31 Z M30,29 L38,29 L38,37 L30,37 L30,29 Z" id="Rectangle-4" fill="#83DC93" fill-rule="nonzero" opacity="0.400000006"></path>
                    <path d="M50.6830881,6.62231915 L54.6223192,7.31691186 L55.3169119,3.37768085 L51.3776808,2.68308814 L50.6830881,6.62231915 Z M49.7553617,0.366176277 L57.6338237,1.7553617 L56.2446383,9.63382372 L48.3661763,8.2446383 L49.7553617,0.366176277 Z" id="Rectangle-4" fill="#77D788" fill-rule="nonzero" opacity="0.100000001"></path>
                </g>
            </g>
        </g>
    </g>
</svg>