<?xml version="1.0" encoding="UTF-8"?>
<svg width="72px" height="63px" viewBox="0 0 72 63" version="1.1" xmlns="http://www.w3.org/2000/svg" xmlns:xlink="http://www.w3.org/1999/xlink">
    <!-- Generator: Sketch 44.1 (41455) - http://www.bohemiancoding.com/sketch -->
    <title>bank icon</title>
    <desc>Created with Sketch.</desc>
    <defs>
        <linearGradient x1="50%" y1="0%" x2="50%" y2="100%" id="linearGradient-1">
            <stop stop-color="#71DA6E" offset="0%"></stop>
            <stop stop-color="#388B33" offset="100%"></stop>
        </linearGradient>
    </defs>
    <g id="Page-1" stroke="none" stroke-width="1" fill="none" fill-rule="evenodd">
        <g id="cloudcoin-iphone-app" transform="translate(-152.000000, -299.000000)" fill-rule="nonzero" fill="url(#linearGradient-1)">
            <g id="bank" transform="translate(58.000000, 241.000000)">
                <path d="M161.153053,58.6233744 C163.549996,58.6233744 165.5,60.5781816 165.5,62.9810291 L165.5,116.018971 C165.5,118.421818 163.549996,120.376626 161.153053,120.376626 L98.8469473,120.376626 C96.4500039,120.376626 94.5,118.421818 94.5,116.018971 L94.5,62.9810291 C94.5,60.5781816 96.4500039,58.6233744 98.8469473,58.6233744 L161.153053,58.6233744 Z M162.602035,116.018693 L162.602035,62.9810291 C162.602035,62.1800336 161.95208,61.5284776 161.153053,61.5284776 L98.8469473,61.5284776 C98.0479199,61.5284776 97.3979648,62.1800336 97.3979648,62.9810291 L97.3979648,116.018693 C97.3979648,116.819688 98.0479199,117.471244 98.8469473,117.471244 L161.153053,117.471244 C161.95208,117.471244 162.602035,116.819688 162.602035,116.018693 Z M157.82049,64.7034058 C158.620627,64.7035448 159.269334,65.3538498 159.269334,66.1559574 L159.269334,79.4652444 L159.269334,99.5343386 L159.269334,112.677783 C159.269334,113.480029 158.620488,114.130334 157.820352,114.130334 L102.179648,114.130334 C101.379512,114.130334 100.730666,113.480029 100.730666,112.677783 L100.730666,106.639872 L100.730666,96.7625493 L100.730666,82.2370336 L100.730666,72.3597108 L100.730666,66.1558184 C100.730666,65.7706121 100.883482,65.4011143 101.155141,65.128787 C101.426938,64.8564596 101.795389,64.7034058 102.179648,64.7034058 L137.18348,64.7043789 C137.983756,64.7043789 138.632463,65.3546839 138.632463,66.1569305 C138.632463,66.9591771 137.983617,67.6094821 137.18348,67.6094821 L103.628631,67.608648 L103.628631,70.9075762 L106.526596,70.9075762 C107.326732,70.9075762 107.975578,71.5578812 107.975578,72.3601278 L107.975578,82.2374507 C107.975578,83.0396973 107.326732,83.6900022 106.526596,83.6900022 L103.628631,83.6900022 L103.628631,95.3104148 L106.526596,95.3104148 C107.326732,95.3104148 107.975578,95.9607197 107.975578,96.7629664 L107.975578,106.640289 C107.975578,107.442536 107.326732,108.092841 106.526596,108.092841 L103.628631,108.092841 L103.628631,111.225648 L156.371369,111.225648 L156.371369,100.611693 L152.231182,99.3509798 C151.620748,99.1651188 151.203346,98.6007242 151.203346,97.9611233 L151.203346,81.0387377 C151.203346,80.3991368 151.620748,79.8347422 152.231182,79.6488812 L156.371369,78.3883072 L156.371369,67.60837 L146.579471,67.6075359 C145.779334,67.6073969 145.130488,66.9570919 145.130627,66.1548453 C145.130766,65.3527377 145.779473,64.7024327 146.579609,64.7024327 L146.579748,64.7024327 L157.82049,64.7034058 Z M146.554787,82.48837 C147.464613,84.6441906 147.967438,87.0170112 147.967437,89.4997915 C147.967854,93.224935 146.835043,96.6983251 144.897936,99.5711771 C142.960967,102.445141 140.220533,104.727047 136.994193,106.095357 C134.843947,107.007424 132.476818,107.511626 130.000139,107.511487 C126.28401,107.512043 122.819154,106.376303 119.9535,104.434424 C117.086459,102.492684 114.810299,99.7455 113.445352,96.511213 C112.535525,94.3556704 112.032562,91.9827108 112.032701,89.4999305 C112.032146,85.774648 113.164957,82.3012578 115.102064,79.4284058 C117.039033,76.5543027 119.779467,74.2725359 123.005807,72.9042265 C125.156191,71.9921592 127.523182,71.4879574 130,71.4882354 C133.71599,71.4876794 137.180846,72.6232803 140.046639,74.5651592 C142.913541,76.5068991 145.18984,79.254083 146.554787,82.48837 Z M143.88577,95.3795045 C144.647771,93.5728857 145.069195,91.5895807 145.069473,89.4999305 C145.068918,86.3662892 144.121789,83.4675807 142.496693,81.0547242 C140.871598,78.6429798 138.567703,76.7254283 135.865266,75.5799574 C134.063225,74.8162175 132.084793,74.3936166 130.000139,74.3934776 C126.874197,74.3940336 123.982611,75.3433565 121.575822,76.9724552 C119.170004,78.6015538 117.257164,80.9111233 116.114508,83.6202175 C115.352506,85.4266973 114.930943,87.4101413 114.930805,89.4999305 C114.931359,92.6334327 115.87835,95.5321413 117.503445,97.9449978 C119.128541,100.356742 121.432436,102.274294 124.134873,103.419765 C125.936914,104.183643 127.915484,104.606244 130.000139,104.606383 C133.125941,104.605827 136.017527,103.656365 138.424455,102.027267 C140.830273,100.398168 142.743113,98.0885987 143.88577,95.3795045 Z M142.273016,84.3018004 C142.947654,85.9001771 143.320404,87.6602265 143.320404,89.4997915 C143.320959,92.2394686 142.493365,94.7984283 141.076971,96.9183834 C139.660576,99.0391726 137.656629,100.729159 135.293105,101.756469 C134.558838,102.075643 133.70559,101.737424 133.387338,101.001487 C133.068947,100.265549 133.406336,99.4101996 134.140465,99.0911637 C135.747256,98.3931771 137.146871,97.2981682 138.213813,95.9309709 L135.674037,94.4611816 C134.291895,96.0477422 132.261461,97.0530874 130,97.0530874 C127.738539,97.0530874 125.708105,96.0477422 124.325824,94.4610426 L121.785771,95.9311099 C122.859785,97.307343 124.271188,98.4077735 125.891568,99.105065 C126.626807,99.4215987 126.966969,100.275697 126.651213,101.012886 C126.335457,101.749935 125.483318,102.090935 124.74808,101.774401 C122.373602,100.751957 120.359254,99.0614148 118.93551,96.9368722 C117.511627,94.8133027 116.67918,92.2473924 116.679734,89.4997915 C116.67918,86.7392623 117.519393,84.16237 118.955479,82.0329619 C120.391426,79.9024417 122.422414,78.2114821 124.814781,77.1965448 C126.40923,76.5203834 128.164955,76.1465762 130.000139,76.1467152 C132.753885,76.1461592 135.324445,76.9884417 137.448621,78.428065 C139.573906,79.8676883 141.260711,81.9036794 142.273016,84.3018004 Z M130,99.9477646 C130.800275,99.9477646 131.448982,100.59807 131.448982,101.400316 C131.448982,102.202563 130.800275,102.852868 130,102.852868 L129.987936,102.852868 C129.18766,102.852868 128.538953,102.202563 128.538953,101.400316 C128.538953,100.59807 129.18766,99.9477646 129.987936,99.9477646 L130,99.9477646 Z M122.465264,89.4997915 C122.465264,85.8319215 125.087549,82.76737 128.551018,82.0880112 L128.551018,79.1535762 C126.945059,79.3771099 125.460021,79.9651368 124.17384,80.835361 C122.509639,81.962065 121.186154,83.5603027 120.396141,85.43337 C119.869326,86.6825448 119.577838,88.0532175 119.577699,89.4997915 C119.577977,90.8882578 119.847832,92.2077735 120.33568,93.4159395 L122.873375,91.9471233 C122.610176,91.179074 122.465264,90.3563924 122.465264,89.4997915 Z M130,94.1479843 C132.556693,94.1479843 134.636771,92.0629215 134.636771,89.4997915 C134.636771,86.9368004 132.556693,84.8515987 130,84.8515987 C127.443307,84.8515987 125.363229,86.9368004 125.363229,89.4997915 C125.363229,92.0627825 127.443307,94.1479843 130,94.1479843 Z M139.664043,93.4159395 C140.152168,92.2076345 140.421746,90.8882578 140.422162,89.4999305 C140.421607,87.3310426 139.767076,85.3286928 138.643141,83.6594193 C137.519066,81.9911188 135.924756,80.6643744 134.056291,79.8724148 C133.23577,79.5246031 132.361721,79.2816076 131.448982,79.1545493 L131.448982,82.0882892 C134.912451,82.767509 137.534736,85.8319215 137.534736,89.4999305 C137.534736,90.3563924 137.389824,91.179213 137.126348,91.9472623 L139.664043,93.4159395 Z M141.890281,64.7022937 C142.690418,64.7022937 143.339264,65.3525987 143.339264,66.1548453 C143.339264,66.9570919 142.690418,67.6073969 141.890281,67.6073969 L141.871145,67.6073969 C141.070869,67.6073969 140.422162,66.9570919 140.422162,66.1548453 C140.422162,65.3525987 141.071008,64.7022937 141.871145,64.7022937 L141.890281,64.7022937 Z M103.628631,73.8122623 L103.628631,80.7844821 L105.077613,80.7844821 L105.077613,73.8122623 L103.628631,73.8122623 Z M103.628631,98.2151009 L103.628631,105.187321 L105.077613,105.187321 L105.077613,98.2151009 L103.628631,98.2151009 Z M156.371369,97.575361 L156.371369,81.424361 L154.101311,82.1156749 L154.101311,96.8840471 L156.371369,97.575361 Z" id="bank-icon"></path>
            </g>
        </g>
    </g>
</svg>