<?xml version="1.0" encoding="UTF-8"?>
<svg width="70px" height="51px" viewBox="0 0 70 51" version="1.1" xmlns="http://www.w3.org/2000/svg" xmlns:xlink="http://www.w3.org/1999/xlink">
    <!-- Generator: Sketch 44.1 (41455) - http://www.bohemiancoding.com/sketch -->
    <title>export icon</title>
    <desc>Created with Sketch.</desc>
    <defs>
        <linearGradient x1="0%" y1="101.499999%" x2="100%" y2="101.499999%" id="linearGradient-1">
            <stop stop-color="#9E3CD3" offset="0%"></stop>
            <stop stop-color="#C96DD8" offset="100%"></stop>
        </linearGradient>
    </defs>
    <g id="Page-1" stroke="none" stroke-width="1" fill="none" fill-rule="evenodd">
        <g id="cloudcoin-iphone-app" transform="translate(-153.000000, -476.000000)" fill-rule="nonzero" fill="url(#linearGradient-1)">
            <g id="spend-coins" transform="translate(58.000000, 415.000000)">
                <path d="M114.265195,62.8621549 C113.282437,62.8621549 112.486126,62.0709428 112.486126,61.0944781 L112.486126,57.1860269 C112.486126,56.2095623 113.282437,55.4183502 114.265195,55.4183502 C115.247953,55.4183502 116.044265,56.2095623 116.044265,57.1860269 L116.044265,61.0944781 C116.044265,62.0709428 115.247953,62.8621549 114.265195,62.8621549 Z M153.602326,78.8695286 C154.585084,78.8695286 155.381395,79.6607407 155.381395,80.6372054 L155.381395,96.2712458 C155.381395,110.17697 143.995349,121.490101 130,121.490101 C116.004651,121.490101 104.618605,110.17697 104.618605,96.2712458 L104.618605,68.9116162 C104.618605,67.9351515 105.414916,67.1439394 106.397674,67.1439394 C107.380433,67.1439394 108.176744,67.9351515 108.176744,68.9116162 L108.176744,83.4084512 C109.364451,81.4267677 110.816409,79.6185522 112.486126,78.0347138 L112.486126,69.162862 C112.486126,68.1863973 113.282437,67.3951852 114.265195,67.3951852 C115.247953,67.3951852 116.044265,68.1863973 116.044265,69.162862 L116.044265,75.2177441 C117.396121,74.329899 118.837879,73.5674411 120.353409,72.9463973 L120.353409,65.4912795 C120.353409,64.5148148 121.149721,63.7236027 122.132479,63.7236027 C123.115237,63.7236027 123.911549,64.5148148 123.911549,65.4912795 L123.911549,71.7875084 C125.86307,71.3083502 127.901647,71.0523906 130,71.0523906 C133.557665,71.0523906 136.945726,71.7846801 140.022093,73.103367 L140.022093,67.3718519 C140.022093,66.3953872 140.818405,65.6041751 141.801163,65.6041751 C142.783921,65.6041751 143.580233,66.3953872 143.580233,67.3718519 L143.580233,74.9749832 C146.947893,77.1025589 149.778749,79.996835 151.823256,83.4084512 L151.823256,80.6372054 C151.823256,79.6607407 152.619567,78.8695286 153.602326,78.8695286 Z M130,117.954747 C142.033153,117.954747 151.823256,108.227576 151.823256,96.2712458 C151.823256,84.3149158 142.033391,74.5877441 130,74.5877441 C117.966609,74.5877441 108.176744,84.3149158 108.176744,96.2712458 C108.176744,108.227576 117.966847,117.954747 130,117.954747 Z M130,76.9151852 C140.741786,76.9151852 149.480814,85.5982492 149.480814,96.2712458 C149.480814,106.944242 140.741786,115.627306 130,115.627306 C119.258214,115.627306 110.519186,106.944242 110.519186,96.2712458 C110.519186,85.5982492 119.258214,76.9151852 130,76.9151852 Z M130,112.091953 C138.779828,112.091953 145.922674,104.994848 145.922674,96.2712458 C145.922674,87.5476431 138.779828,80.4505387 130,80.4505387 C121.220172,80.4505387 114.077326,87.5476431 114.077326,96.2712458 C114.077326,104.994848 121.220172,112.091953 130,112.091953 Z M153.602326,67.1439394 C154.585084,67.1439394 155.381395,67.9351515 155.381395,68.9116162 L155.381395,72.8200673 C155.381395,73.796532 154.585084,74.5877441 153.602326,74.5877441 C152.619567,74.5877441 151.823256,73.796532 151.823256,72.8200673 L151.823256,68.9116162 C151.823256,67.9351515 152.619567,67.1439394 153.602326,67.1439394 Z M141.801163,62.4475758 C140.818405,62.4475758 140.022093,61.6563636 140.022093,60.679899 L140.022093,56.7714478 C140.022093,55.7949832 140.818405,55.003771 141.801163,55.003771 C142.783921,55.003771 143.580233,55.7949832 143.580233,56.7714478 L143.580233,60.679899 C143.580233,61.6563636 142.783921,62.4475758 141.801163,62.4475758 Z M130,66.7708418 C129.017242,66.7708418 128.22093,65.9796296 128.22093,65.003165 L128.22093,57.1860269 C128.22093,56.2095623 129.017242,55.4183502 130,55.4183502 C130.982758,55.4183502 131.77907,56.2095623 131.77907,57.1860269 L131.77907,65.003165 C131.77907,65.9796296 130.982758,66.7708418 130,66.7708418 Z M122.132479,58.9537037 C121.149721,58.9537037 120.353409,58.1624916 120.353409,57.1860269 L120.353409,53.2775758 C120.353409,52.3011111 121.149721,51.509899 122.132479,51.509899 C123.115237,51.509899 123.911549,52.3011111 123.911549,53.2775758 L123.911549,57.1860269 C123.911549,58.1624916 123.115237,58.9537037 122.132479,58.9537037 Z M128.495328,88.7749557 C128.495328,87.9444797 129.163199,87.2712458 130,87.2712458 C130.831008,87.2712458 131.504672,87.9548872 131.504672,88.7749557 L131.504672,103.767536 C131.504672,104.598012 130.836801,105.271246 130,105.271246 C129.168992,105.271246 128.495328,104.587604 128.495328,103.767536 L128.495328,88.7749557 Z" id="export-icon" transform="translate(130.000000, 86.500000) rotate(-90.000000) translate(-130.000000, -86.500000) "></path>
            </g>
        </g>
    </g>
</svg>