<?xml version="1.0" encoding="UTF-8"?>
<svg width="24px" height="24px" viewBox="0 0 24 24" version="1.1" xmlns="http://www.w3.org/2000/svg" xmlns:xlink="http://www.w3.org/1999/xlink">
    <!-- Generator: Sketch 44.1 (41455) - http://www.bohemiancoding.com/sketch -->
    <title>help</title>
    <desc>Created with Sketch.</desc>
    <defs></defs>
    <g id="Page-1" stroke="none" stroke-width="1" fill="none" fill-rule="evenodd">
        <g id="cloudcoin-iphone-app" transform="translate(-305.000000, -508.000000)" fill-rule="nonzero" fill="#ABAFBA">
            <g id="bank-popup">
                <g id="Message" transform="translate(20.000000, 28.000000)">
                    <path d="M297,504 C290.372583,504 285,498.627417 285,492 C285,485.372583 290.372583,480 297,480 C303.627417,480 309,485.372583 309,492 C309,498.627417 303.627417,504 297,504 Z M297,502 C302.522847,502 307,497.522847 307,492 C307,486.477153 302.522847,482 297,482 C291.477153,482 287,486.477153 287,492 C287,497.522847 291.477153,502 297,502 Z M293.079556,489.612358 C293.119008,487.671342 294.491922,486.314209 296.914246,486.314209 C299.170875,486.314209 300.662143,487.568768 300.662143,489.367758 C300.662143,490.559195 300.08615,491.387677 298.973617,492.042573 C297.924206,492.650127 297.632264,493.036752 297.632264,493.810002 L297.632264,494.228188 L295.541333,494.228188 L295.525552,493.770551 C295.422978,492.531772 295.856945,491.821644 296.945808,491.182529 C297.963657,490.574976 298.271379,490.18835 298.271379,489.438771 C298.271379,488.689192 297.671716,488.144761 296.772221,488.144761 C295.864835,488.144761 295.265172,488.720753 295.21783,489.612358 L293.079556,489.612358 Z M296.614415,497.999756 C295.904287,497.999756 295.328294,497.455325 295.328294,496.760977 C295.328294,496.06663 295.904287,495.522199 296.614415,495.522199 C297.332433,495.522199 297.908425,496.06663 297.908425,496.760977 C297.908425,497.455325 297.332433,497.999756 296.614415,497.999756 Z" id="help"></path>
                </g>
            </g>
        </g>
    </g>
</svg>