<?xml version="1.0" encoding="UTF-8"?>
<svg width="47px" height="52px" viewBox="0 0 47 52" version="1.1" xmlns="http://www.w3.org/2000/svg" xmlns:xlink="http://www.w3.org/1999/xlink">
    <!-- Generator: Sketch 44.1 (41455) - http://www.bohemiancoding.com/sketch -->
    <title>import cloud</title>
    <desc>Created with Sketch.</desc>
    <defs></defs>
    <g id="Page-1" stroke="none" stroke-width="1" fill="none" fill-rule="evenodd">
        <g id="cloudcoin-iphone-app" transform="translate(-162.000000, -71.000000)">
            <g id="add-coins" transform="translate(58.000000, 71.000000)">
                <g id="import-cloud" transform="translate(104.000000, 0.000000)">
                    <path d="M32,44 C29.2385763,44 27,41.7614237 27,39 C27,36.2385763 29.2385763,34 32,34 C34.7614237,34 37,36.2385763 37,39 C37,41.7614237 34.7614237,44 32,44 Z M32,42 C33.6568542,42 35,40.6568542 35,39 C35,37.3431458 33.6568542,36 32,36 C30.3431458,36 29,37.3431458 29,39 C29,40.6568542 30.3431458,42 32,42 Z" id="Oval-2" fill="#FF9927" fill-rule="nonzero" opacity="0.100000001"></path>
                    <path d="M43,22 C40.790861,22 39,20.209139 39,18 C39,15.790861 40.790861,14 43,14 C45.209139,14 47,15.790861 47,18 C47,20.209139 45.209139,22 43,22 Z M43,20 C44.1045695,20 45,19.1045695 45,18 C45,16.8954305 44.1045695,16 43,16 C41.8954305,16 41,16.8954305 41,18 C41,19.1045695 41.8954305,20 43,20 Z" id="Oval-2" fill="#FF9927" fill-rule="nonzero" opacity="0.100000001"></path>
                    <path d="M27.0710678,10.0710678 L27.0710678,6.07106781 L25.0710678,6.07106781 L25.0710678,10.0710678 L21.0710678,10.0710678 L21.0710678,12.0710678 L25.0710678,12.0710678 L25.0710678,16.0710678 L27.0710678,16.0710678 L27.0710678,12.0710678 L31.0710678,12.0710678 L31.0710678,10.0710678 L27.0710678,10.0710678 Z" id="Combined-Shape" fill="#FFA653" opacity="0.300000012" transform="translate(26.071068, 11.071068) rotate(-315.000000) translate(-26.071068, -11.071068) "></path>
                    <path d="M3.89403442,28.9669347 L6.10140868,30.6303105 L6.66109737,27.5912484 L3.89403442,28.9669347 Z M7.48221744,34.1750959 L0.105965577,28.6166914 L9.35249597,24.0196418 L7.48221744,34.1750959 Z" id="Triangle" fill="#FF9927" fill-rule="nonzero" opacity="0.400000006"></path>
                    <path d="M14,46 L14,50 L18,50 L18,46 L14,46 Z M12,44 L20,44 L20,52 L12,52 L12,44 Z" id="Rectangle-4" fill="#FF9927" fill-rule="nonzero" opacity="0.400000006"></path>
                    <path d="M3.31691186,6.25614287 L7.25614287,6.95073558 L7.95073558,3.01150457 L4.01150457,2.31691186 L3.31691186,6.25614287 Z M2.38918542,0 L10.2676474,1.38918542 L8.87846202,9.26764745 L1,7.87846202 L2.38918542,0 Z" id="Rectangle-4" fill="#FF9927" fill-rule="nonzero" opacity="0.100000001"></path>
                </g>
            </g>
        </g>
    </g>
</svg>