<?xml version="1.0" encoding="UTF-8"?>
<svg width="53px" height="65px" viewBox="0 0 53 65" version="1.1" xmlns="http://www.w3.org/2000/svg" xmlns:xlink="http://www.w3.org/1999/xlink">
    <!-- Generator: Sketch 44.1 (41455) - http://www.bohemiancoding.com/sketch -->
    <title>import icon</title>
    <desc>Created with Sketch.</desc>
    <defs>
        <linearGradient x1="50%" y1="0%" x2="50%" y2="100%" id="linearGradient-1">
            <stop stop-color="#FFB100" offset="0%"></stop>
            <stop stop-color="#FF5E00" offset="100%"></stop>
        </linearGradient>
    </defs>
    <g id="Page-1" stroke="none" stroke-width="1" fill="none" fill-rule="evenodd">
        <g id="cloudcoin-iphone-app" transform="translate(-170.000000, -127.000000)" fill-rule="nonzero" fill="url(#linearGradient-1)">
            <g id="add-coins" transform="translate(58.000000, 71.000000)">
                <path d="M149.115248,101.995328 L155.106866,101.995328 C155.937342,101.995328 156.610576,102.663199 156.610576,103.5 C156.610576,104.331008 155.926934,105.004672 155.106866,105.004672 L149.115248,105.004672 L149.115248,110.99629 C149.115248,111.826766 148.447377,112.5 147.610576,112.5 C146.779568,112.5 146.105904,111.816359 146.105904,110.99629 L146.105904,105.004672 L140.114286,105.004672 C139.28381,105.004672 138.610576,104.336801 138.610576,103.5 C138.610576,102.668992 139.294217,101.995328 140.114286,101.995328 L146.105904,101.995328 L146.105904,96.0037099 C146.105904,95.1732339 146.773775,94.5 147.610576,94.5 C148.441583,94.5 149.115248,95.1836414 149.115248,96.0037099 L149.115248,101.995328 Z M147.775382,85.8335 C157.273175,85.8335 165.000124,93.60925 165,103.167 C165,112.7245 157.273051,120.5 147.775258,120.5 C140.474375,120.5 134.220645,115.905375 131.717415,109.439125 C130.893728,109.479125 130.05936,109.50025 129.224991,109.50025 C124.847691,109.50025 120.714478,108.9585 117.586806,107.975 C112.969269,106.523 112,104.558875 112,103.167 L112,62.833375 C112,61.441375 112.969269,59.47725 117.586806,58.025125 C120.714478,57.04175 124.847566,56.5 129.224991,56.5 C133.602415,56.5 137.735628,57.04175 140.863176,58.025125 C145.480464,59.47725 146.449857,61.441375 146.449857,62.833375 L146.449857,85.88425 C146.887227,85.85075 147.329565,85.8335 147.775382,85.8335 Z M118.377202,60.570375 C115.334618,61.52725 114.649932,62.5505 114.649932,62.833375 C114.649932,63.1165 115.334618,64.139625 118.377202,65.096375 C121.255818,66.001625 125.108299,66.500125 129.224991,66.500125 C133.341682,66.500125 137.194039,66.001625 140.07278,65.0965 C143.115114,64.139625 143.799925,63.1165 143.799925,62.833375 C143.799925,62.550375 143.115114,61.527125 140.07278,60.570375 C137.194039,59.665125 133.341434,59.166625 129.224991,59.166625 C125.108299,59.166625 121.255942,59.665125 118.377202,60.570375 Z M114.649932,66.407 L114.649683,66.407 L114.649683,76.27825 C114.649683,76.56125 115.334494,77.584375 118.377077,78.541125 C121.255693,79.446375 125.108423,79.944875 129.224866,79.944875 C131.658784,79.944875 134.081398,79.76275 136.230981,79.41825 C136.951815,79.302625 137.632776,79.797875 137.747925,80.52525 C137.863075,81.252375 137.370552,81.935875 136.647731,82.051625 C134.330081,82.42325 131.832688,82.611625 129.224866,82.611625 C124.847566,82.611625 120.714354,82.07 117.586682,81.0865 C116.370095,80.704 115.408901,80.285625 114.649807,79.851875 L114.649807,83.00025 C114.649807,83.283375 115.334618,84.306625 118.377202,85.263375 C121.255693,86.168625 125.108299,86.667 129.224991,86.667 C133.341682,86.667 137.194039,86.168625 140.07278,85.263375 C143.115114,84.3065 143.799925,83.283375 143.799925,83.00025 L143.799925,73.129625 C143.040832,73.563375 142.079762,73.981625 140.863176,74.364125 C137.735752,75.3475 133.602539,75.88925 129.225115,75.88925 C127.209438,75.88925 125.238106,75.774625 123.365652,75.54875 C122.639104,75.46125 122.120744,74.797375 122.207821,74.06625 C122.294773,73.335125 122.954865,72.81275 123.68104,72.901125 C125.449276,73.114375 127.314526,73.222625 129.224991,73.222625 C133.341682,73.222625 137.193915,72.724125 140.07278,71.819 C143.115114,70.862125 143.799925,69.838875 143.799925,69.556 L143.799925,66.407125 C143.040832,66.841 142.079762,67.25925 140.863176,67.64175 C137.735628,68.625 133.602291,69.16675 129.224991,69.16675 C124.847691,69.16675 120.714478,68.625125 117.586806,67.641625 C116.37022,67.259125 115.409025,66.840875 114.649932,66.407 Z M129.224991,106.833625 C129.795025,106.833625 130.365059,106.823625 130.930621,106.80375 C130.923541,106.770875 130.917578,106.73775 130.910995,106.705125 C130.899939,106.65125 130.889381,106.597 130.878822,106.542875 C130.86168,106.455125 130.844414,106.3675 130.828514,106.279625 C130.81721,106.216 130.806528,106.152125 130.795845,106.088375 C130.782181,106.008 130.768517,105.92775 130.755971,105.84725 C130.744792,105.775375 130.734854,105.703 130.724668,105.630875 C130.714234,105.5575 130.703427,105.483875 130.693987,105.410125 C130.683801,105.3305 130.674981,105.2505 130.665789,105.170625 C130.657964,105.10325 130.649641,105.035625 130.642561,104.967875 C130.633617,104.882 130.626537,104.795625 130.618835,104.709375 C130.61337,104.646875 130.607034,104.58425 130.60219,104.5215 C130.595234,104.429 130.589768,104.33575 130.584054,104.242875 C130.5807,104.18625 130.576229,104.129375 130.573372,104.0725 C130.56803,103.969375 130.564676,103.8655 130.561198,103.76175 C130.559459,103.714625 130.557099,103.6675 130.555857,103.620625 C130.552006,103.46975 130.549894,103.31875 130.549894,103.167 C130.549894,103.03125 130.551633,102.896 130.554739,102.7605 C130.112276,102.771875 129.668199,102.778125 129.224866,102.778125 C124.847566,102.778125 120.714229,102.236375 117.586682,101.252875 C116.370095,100.870375 115.408901,100.452 114.649807,100.01825 L114.649807,103.167 C114.649807,103.45 115.334618,104.473125 118.377202,105.429875 C121.255818,106.335125 125.108547,106.833625 129.224991,106.833625 Z M132.075037,96.037625 C132.08485,96.016 132.094912,95.9945 132.104725,95.97275 C131.157939,96.025625 130.196247,96.05575 129.224991,96.05575 C127.209313,96.05575 125.237982,95.941125 123.365528,95.71525 C122.638979,95.62775 122.12062,94.963875 122.207696,94.23275 C122.294649,93.5015 122.95474,92.979875 123.680916,93.067625 C125.449152,93.280875 127.314401,93.389125 129.224866,93.389125 C130.749885,93.389125 132.253537,93.3195 133.69446,93.183 C134.000035,92.746875 134.325733,92.323625 134.6723,91.91525 C135.872117,90.502125 137.281861,89.3025 138.837188,88.35125 C136.044531,88.988625 132.713142,89.3335 129.224866,89.3335 C124.847442,89.3335 120.714229,88.79175 117.586682,87.808375 C116.370095,87.425875 115.408901,87.0075 114.649807,86.57375 L114.649683,86.57375 L114.649683,96.44475 C114.649683,96.72775 115.334494,97.751 118.377077,98.70775 C121.255693,99.613 125.108175,100.1115 129.224866,100.1115 C129.758008,100.1115 130.292143,100.101875 130.822924,100.084625 C131.040057,98.8725 131.383642,97.704125 131.83803,96.592875 C131.858153,96.543375 131.877779,96.493875 131.898399,96.444625 C131.910821,96.414625 131.923988,96.385 131.936658,96.355125 C131.981377,96.25 132.026716,96.1455 132.073298,96.041375 C132.073795,96.04 132.07454,96.039 132.075037,96.037625 Z M147.775382,117.833375 C155.811757,117.833375 162.350068,111.254 162.350317,103.16675 C162.350317,95.0795 155.812005,88.499875 147.77563,88.499875 C146.935175,88.499875 146.111364,88.572875 145.309665,88.710875 C145.124208,88.742625 144.940118,88.7785 144.757394,88.817 C144.703608,88.8285 144.649946,88.840375 144.596656,88.852375 C144.456912,88.8835 144.318161,88.917125 144.180279,88.952 C144.059416,88.983125 143.938925,89.0155 143.819428,89.049375 C143.798311,89.055375 143.777442,89.061625 143.756201,89.067625 C138.589499,90.56125 134.58982,94.85925 133.497451,100.212125 C133.496954,100.214375 133.496333,100.216625 133.495961,100.218875 C133.457702,100.4055 133.424411,100.59375 133.393481,100.783 C133.381059,100.86075 133.368389,100.9385 133.357085,101.016625 C133.344664,101.10175 133.332366,101.18675 133.321311,101.272375 C133.301312,101.4305 133.283424,101.5895 133.26827,101.74925 C133.262804,101.805625 133.25796,101.86225 133.25324,101.918875 C133.238334,102.09875 133.225663,102.2795 133.217217,102.461125 C133.215726,102.494 133.214856,102.52725 133.21349,102.560125 C133.205416,102.7615 133.19995,102.963625 133.19995,103.167 C133.19995,103.336625 133.203801,103.50575 133.209639,103.67475 C133.211006,103.716625 133.212496,103.7585 133.21436,103.800375 C133.22144,103.967375 133.230508,104.134 133.243178,104.300125 C133.244296,104.313625 133.245538,104.326875 133.246656,104.340375 C133.258705,104.493875 133.273984,104.647 133.290753,104.8 C133.295846,104.845875 133.300939,104.89175 133.306405,104.937625 C133.325286,105.095375 133.346154,105.252875 133.370252,105.40975 C133.376091,105.448375 133.383047,105.486625 133.389258,105.525125 C133.409008,105.64825 133.430498,105.77125 133.453478,105.893875 C133.464409,105.95175 133.475092,106.009625 133.486644,106.06725 C133.514966,106.208375 133.545026,106.348875 133.577199,106.488875 C133.593099,106.558 133.610489,106.62625 133.627258,106.69475 C133.647754,106.77775 133.668996,106.86075 133.690858,106.9435 C133.723651,107.06675 133.757811,107.189375 133.793586,107.311375 C133.814951,107.384125 133.835944,107.457125 133.858427,107.529625 C135.708522,113.492875 141.247629,117.833375 147.775382,117.833375 Z M118.668243,74.6755 C117.960576,74.48775 117.538237,73.75825 117.72506,73.046125 C117.91151,72.334125 118.636071,71.909 119.344235,72.097 C119.529195,72.146 119.718378,72.193625 119.911163,72.23975 C120.623054,72.410125 121.062784,73.129125 120.893475,73.845375 C120.748638,74.458125 120.205062,74.8705 119.605588,74.8705 C119.504103,74.8705 119.400878,74.858875 119.297777,74.834125 C119.083751,74.783 118.873575,74.73 118.668243,74.6755 Z M140.195507,81.230875 C139.624479,81.230875 139.097672,80.85675 138.926004,80.277625 C138.717194,79.571875 139.116305,78.829375 139.817637,78.619125 C140.046942,78.550625 140.277739,78.476625 140.503939,78.399375 C141.197072,78.163 141.949458,78.536625 142.184353,79.234 C142.419372,79.9315 142.047962,80.688625 141.354953,80.925 C141.097574,81.01275 140.834978,81.096875 140.57437,81.175 C140.448289,81.21275 140.320718,81.230875 140.195507,81.230875 Z M119.910294,92.40625 C120.622309,92.576125 121.062535,93.294875 120.893475,94.011375 C120.748886,94.624375 120.20531,95.037125 119.605464,95.037125 C119.504351,95.037125 119.401375,95.025375 119.298523,95.000875 C119.084869,94.94975 118.875065,94.897125 118.669858,94.843 C117.962067,94.656125 117.538858,93.927125 117.724439,93.215 C117.910144,92.5025 118.63545,92.07725 119.342372,92.263625 C119.52758,92.3125 119.71726,92.360125 119.910294,92.40625 Z" id="import-icon"></path>
            </g>
        </g>
    </g>
</svg>