<?xml version="1.0" encoding="UTF-8"?>
<svg width="22px" height="22px" viewBox="0 0 22 22" version="1.1" xmlns="http://www.w3.org/2000/svg" xmlns:xlink="http://www.w3.org/1999/xlink">
    <!-- Generator: Sketch 44.1 (41455) - http://www.bohemiancoding.com/sketch -->
    <title>settings</title>
    <desc>Created with Sketch.</desc>
    <defs></defs>
    <g id="Page-1" stroke="none" stroke-width="1" fill="none" fill-rule="evenodd">
        <g id="cloudcoin-iphone-app" transform="translate(-333.000000, -31.000000)" fill-rule="nonzero" fill="#94C5FF">
            <g id="header">
                <g id="Header-/-Homekit-/-Cancel-and-Done">
                    <path d="M354.985006,41.113728 L354.985006,42.8713409 C354.985006,43.965091 354.198026,44.8955656 353.118216,45.0767917 L351.715466,45.3105835 L351.551067,44.3241896 L352.507947,44.6146712 C352.447147,44.8149544 352.377947,45.0144606 352.300627,45.2130565 C352.251978,45.3380132 352.200113,45.4626095 352.145103,45.5868123 C352.061657,45.7752186 351.970973,45.9627192 351.873293,46.1491985 L350.987462,45.6851915 L351.801986,45.1050624 L352.628748,46.2658692 C353.262267,47.1558132 353.159042,48.372078 352.387594,49.143526 L351.143488,50.3876321 C350.722233,50.8088863 350.158989,51.0437374 349.563837,51.0437374 C349.095506,51.0437374 348.640602,50.8986386 348.264246,50.6276555 L347.107812,49.8010347 L347.689328,48.9874998 L348.156825,49.8714944 C347.971405,49.969553 347.782393,50.0609842 347.590029,50.1457239 C347.466532,50.2001261 347.341655,50.2517705 347.21546,50.3006399 C347.021409,50.3757864 346.824243,50.4443716 346.624194,50.5063339 L346.328326,49.5511048 L347.31424,49.7183581 L347.076566,51.1193725 C346.895527,52.1980641 345.965053,52.9850438 344.871303,52.9850438 L343.109515,52.9850438 C342.015765,52.9850438 341.08529,52.1980641 340.904064,51.1182543 L340.670272,49.7155038 L341.656666,49.5511048 L341.35889,50.5057405 C341.158107,50.443111 340.960921,50.3743739 340.767603,50.2994901 C340.656439,50.2564293 340.546553,50.211336 340.437999,50.1642028 C340.245292,50.0805314 340.05678,49.9904317 339.872751,49.8938621 L340.337413,49.008374 L340.917279,49.8230858 L339.748584,50.6548789 C339.369354,50.9279247 338.918564,51.0729614 338.45038,51.0729614 C337.855227,51.0729614 337.291983,50.8381103 336.870729,50.416856 L335.63008,49.1761908 C334.851782,48.4054494 334.750613,47.1869147 335.388206,46.2912663 L336.210652,45.1473567 L337.02258,45.7311148 L336.142109,46.2052147 C336.041316,46.0180278 335.947442,45.8274741 335.860719,45.6340663 C335.805508,45.5109367 335.753196,45.3866504 335.703842,45.2613397 C335.627447,45.0673715 335.558141,44.8709489 335.496145,44.6725628 L336.450625,44.3742878 L336.282466,45.3600477 L334.865658,45.1183532 C333.786967,44.9373141 332.999987,44.0068395 332.999987,42.9130894 L332.999987,41.1554765 C332.999987,40.0617265 333.786967,39.1312519 334.86485,38.9503487 L336.250901,38.7165569 L336.417226,39.7026279 L335.459634,39.4145026 C335.520695,39.2115643 335.588452,39.011984 335.662998,38.8157213 C335.711347,38.6884303 335.762551,38.5625348 335.816636,38.4380238 C335.899799,38.2465706 335.989773,38.0583908 336.08665,37.8734441 L336.972482,38.3374511 L336.15777,38.9173172 L335.322846,37.7442489 C334.689326,36.8543048 334.792552,35.63804 335.565185,34.8654085 L336.805939,33.6288847 C337.223892,33.2033333 337.794185,32.9663806 338.391932,32.9663806 C338.860262,32.9663806 339.315167,33.1114794 339.694311,33.3844631 L340.842395,34.2110839 L340.258091,35.0226182 L339.783991,34.1421471 C339.971315,34.0412802 340.162011,33.9473422 340.355565,33.8605661 C340.478555,33.8054258 340.6027,33.7531773 340.727866,33.7038803 C340.921834,33.6274856 341.118257,33.5581792 341.316643,33.4961835 L341.614918,34.4506635 L340.629158,34.2825044 L340.870852,32.8656964 C341.051891,31.7870048 341.982366,31.0000251 343.076116,31.0000251 L344.833729,31.0000251 C345.927479,31.0000251 346.857954,31.7870048 347.038857,32.8648884 L347.272649,34.2509394 L346.286578,34.4172646 L346.573174,33.4592133 C346.77509,33.5196154 346.975307,33.5877993 347.173569,33.663542 C347.316774,33.7182509 347.458959,33.7769035 347.600027,33.8394157 C347.790274,33.9237208 347.978489,34.0150457 348.164436,34.1131844 L347.697678,34.9975691 L347.117549,34.1830445 L348.273982,33.359414 C348.653212,33.0863682 349.104002,32.9413315 349.572187,32.9413315 C350.167339,32.9413315 350.730583,33.1761825 351.151837,33.5974368 L352.392486,34.838102 C353.170784,35.6088435 353.271953,36.8273782 352.635967,37.7207844 L351.809346,38.8772186 L350.995811,38.2957026 L351.879806,37.8282054 C351.977864,38.0136254 352.069296,38.2026379 352.154035,38.3950019 C352.208437,38.518498 352.260082,38.6433754 352.308951,38.7695704 C352.384098,38.963621 352.452683,39.1607871 352.514645,39.3608371 L351.559416,39.6567045 L351.72667,38.6707905 L353.128677,38.908631 C354.211746,39.0908967 355.000067,40.0286356 354.985006,41.113728 Z M352.796649,40.880878 L350.786072,40.5397994 L350.604187,39.9525719 C350.475686,39.537697 350.311251,39.1403122 350.111817,38.7631997 L349.82292,38.2169224 L350.182276,37.7141866 L351.007767,36.5593372 C351.075659,36.4639652 351.065239,36.3384718 350.98173,36.2557564 L349.737624,35.0116504 C349.690257,34.9642838 349.635211,34.9413315 349.572187,34.9413315 C349.522915,34.9413315 349.481029,34.9548079 349.438416,34.9854729 L347.775887,36.169576 L347.230919,35.8819539 C346.829504,35.6700958 346.417821,35.5003108 345.999981,35.375316 L345.403978,35.1970243 L345.300507,34.5835899 L345.066579,33.1967309 C345.047251,33.081567 344.950841,33.0000251 344.833729,33.0000251 L343.076116,33.0000251 C342.959004,33.0000251 342.862594,33.081567 342.842819,33.1993727 L342.4977,35.2224849 L341.913193,35.4051434 C341.507392,35.5319562 341.111142,35.6990385 340.73219,35.9030893 L340.181427,36.1996542 L338.525701,35.0075318 C338.488796,34.98096 338.443088,34.9663806 338.391932,34.9663806 C338.328425,34.9663806 338.272995,34.9894111 338.225309,35.037883 L336.978213,36.2808056 C336.896459,36.3625594 336.885574,36.4908247 336.952223,36.5844515 L338.143142,38.2576933 L337.858313,38.8014581 C337.660741,39.1786422 337.500139,39.574248 337.374819,39.9907531 L337.195895,40.5854119 L336.583552,40.6886988 L335.196693,40.9226265 C335.081529,40.9419547 334.999987,41.0383647 334.999987,41.1554765 L334.999987,42.9130894 C334.999987,43.0302012 335.081529,43.1266113 335.199334,43.1463865 L337.222447,43.4915056 L337.405105,44.0760128 C337.531918,44.4818136 337.699,44.8780634 337.903051,45.257015 L338.199394,45.8073661 L337.834508,46.314873 L337.014799,47.4549557 C336.946908,47.5503277 336.957327,47.6758211 337.040836,47.7585364 L338.284942,49.0026425 C338.332309,49.050009 338.387356,49.0729614 338.45038,49.0729614 C338.499651,49.0729614 338.541537,49.059485 338.584413,49.0286327 L340.25807,47.837418 L340.802075,48.1228859 C341.160878,48.3111686 341.546149,48.4691116 341.954443,48.5964692 L342.541894,48.779711 L342.64306,49.3867059 L342.876665,50.788338 C342.895993,50.9035018 342.992403,50.9850438 343.109515,50.9850438 L344.871303,50.9850438 C344.988414,50.9850438 345.084824,50.9035018 345.104446,50.786602 L345.445231,48.7777605 L346.032459,48.5958758 C346.447334,48.4673747 346.844718,48.3029397 347.221831,48.1035052 L347.768108,47.8146085 L348.270844,48.1739648 L349.430067,49.0025862 C349.466972,49.029158 349.512681,49.0437374 349.563837,49.0437374 C349.626861,49.0437374 349.681908,49.0207851 349.729274,48.9734185 L350.97338,47.7293125 C351.055134,47.6475586 351.06602,47.5192933 350.999558,47.4259295 L349.816698,45.7651462 L350.10163,45.2211845 C350.309564,44.8242193 350.474659,44.4274451 350.594186,44.0337079 L350.774471,43.4398284 L351.386668,43.3377956 L352.7883,43.1041909 C352.903464,43.0848627 352.985006,42.9884527 352.985006,42.8713409 L352.985101,41.0999362 C352.986601,40.9911869 352.909806,40.8998693 352.796649,40.880878 Z M344,38 C346.207164,38 348,39.7928364 348,42 C348,44.2071636 346.207164,46 344,46 C341.792836,46 340,44.2071636 340,42 C340,39.7928364 341.792836,38 344,38 Z M344,40 C342.896418,40 342,40.8964182 342,42 C342,43.1035818 342.896418,44 344,44 C345.103582,44 346,43.1035818 346,42 C346,40.8964182 345.103582,40 344,40 Z" id="settings"></path>
                </g>
            </g>
        </g>
    </g>
</svg>